<?xml version="1.0" encoding="utf-8"?>
<!-- Generator: Adobe Illustrator 22.1.0, SVG Export Plug-In . SVG Version: 6.00 Build 0)  -->
<svg version="1.1" id="Слой_1" xmlns="http://www.w3.org/2000/svg" xmlns:xlink="http://www.w3.org/1999/xlink" x="0px" y="0px"
	 viewBox="0 0 1050 386" style="enable-background:new 0 0 1050 386;" xml:space="preserve">
<style type="text/css">
	.st0{fill:#FFFFFF;}
</style>
<rect width="1050" height="386"/>
<rect x="41" y="118" class="st0" width="49" height="230"/>
<rect x="101" y="118" class="st0" width="49" height="230"/>
<rect x="158" y="118" class="st0" width="49" height="230"/>
<rect x="215" y="118" class="st0" width="49" height="230"/>
<rect x="273" y="118" class="st0" width="49" height="230"/>
<rect x="330" y="118" class="st0" width="49" height="230"/>
<rect x="387" y="118" class="st0" width="49" height="230"/>
<rect x="445" y="118" class="st0" width="49" height="230"/>
<rect x="500" y="118" class="st0" width="49" height="230"/>
<rect x="560" y="118" class="st0" width="49" height="230"/>
<rect x="618" y="118" class="st0" width="49" height="230"/>
<rect x="675" y="118" class="st0" width="49" height="230"/>
<rect x="731" y="118" class="st0" width="49" height="230"/>
<rect x="790" y="118" class="st0" width="49" height="230"/>
<rect x="847" y="118" class="st0" width="49" height="230"/>
<rect x="905" y="118" class="st0" width="49" height="230"/>
<rect x="962" y="118" class="st0" width="49" height="230"/>
<rect x="80.5" y="117.5" width="31" height="140.5"/>
<rect x="136.5" y="117.5" width="31" height="140.5"/>
<rect x="253.5" y="117.5" width="31" height="140.5"/>
<rect x="309.5" y="117.5" width="31" height="140.5"/>
<rect x="654.5" y="117.5" width="31" height="140.5"/>
<rect x="710.5" y="117.5" width="31" height="140.5"/>
<rect x="426.5" y="117.5" width="31" height="140.5"/>
<rect x="482.5" y="117.5" width="31" height="140.5"/>
<rect x="539.5" y="117.5" width="31" height="140.5"/>
<rect x="824.5" y="117.5" width="31" height="140.5"/>
<rect x="880.5" y="117.5" width="31" height="140.5"/>
<rect x="937.5" y="117.5" width="31" height="140.5"/>
</svg>
