<?xml version="1.0" encoding="utf-8"?>
<!-- Generator: Adobe Illustrator 22.1.0, SVG Export Plug-In . SVG Version: 6.00 Build 0)  -->
<svg version="1.1" id="Слой_1" xmlns="http://www.w3.org/2000/svg" xmlns:xlink="http://www.w3.org/1999/xlink" x="0px" y="0px"
	 viewBox="0 0 1050 1485" style="enable-background:new 0 0 1050 1485;" xml:space="preserve">
<style type="text/css">
	.st0{font-family:'Pasajero';}
	.st1{font-size:98.2217px;}
	.st2{font-size:42px;}
	.st3{fill:#FFFFFF;}
	.st4{font-family:'Unispace-Bold';}
	.st5{font-size:50.2325px;}
	.st6{font-family:'ErasITC-Medium';}
	.st7{font-size:35px;}
	.st8{font-family:'MyriadPro-Regular';}
	.st9{font-size:31px;}
	.st10{font-size:22px;}
</style>
<text transform="matrix(1 0 0 1 236.0005 569.4834)" class="st0 st1">PIANO MUSIC</text>
<text transform="matrix(1 0 0 1 236 626.9771)" class="st0 st2">live music Concert</text>
<rect x="0.3" y="725" width="483.6" height="439.1"/>
<rect x="322.1" y="797.9" width="483.6" height="439.1"/>
<text transform="matrix(1 0 0 1 370.0083 1183.002)" class="st3 st4 st5">LASVEGAS, NV</text>
<text transform="matrix(1 0 0 1 369.752 1122.7354)" class="st3 st6 st7">APRIL 12</text>
<text transform="matrix(1 0 0 1 54 1005)"><tspan x="0" y="0" class="st3 st8 st9">Leif Ove Andsnes</tspan><tspan x="0" y="37.2" class="st3 st8 st9">Martha Argerich</tspan><tspan x="0" y="74.4" class="st3 st8 st9">Claudio Arrau</tspan><tspan x="0" y="111.6" class="st3 st8 st9">Vladimir Ashkenazy</tspan></text>
<text transform="matrix(1 0 0 1 54.1138 964.9932)" class="st3 st8 st10">Participants:</text>
<rect width="1050" height="386"/>
<rect x="41" y="118" class="st3" width="49" height="230"/>
<rect x="101" y="118" class="st3" width="49" height="230"/>
<rect x="158" y="118" class="st3" width="49" height="230"/>
<rect x="215" y="118" class="st3" width="49" height="230"/>
<rect x="273" y="118" class="st3" width="49" height="230"/>
<rect x="330" y="118" class="st3" width="49" height="230"/>
<rect x="387" y="118" class="st3" width="49" height="230"/>
<rect x="445" y="118" class="st3" width="49" height="230"/>
<rect x="500" y="118" class="st3" width="49" height="230"/>
<rect x="560" y="118" class="st3" width="49" height="230"/>
<rect x="618" y="118" class="st3" width="49" height="230"/>
<rect x="675" y="118" class="st3" width="49" height="230"/>
<rect x="731" y="118" class="st3" width="49" height="230"/>
<rect x="790" y="118" class="st3" width="49" height="230"/>
<rect x="847" y="118" class="st3" width="49" height="230"/>
<rect x="905" y="118" class="st3" width="49" height="230"/>
<rect x="962" y="118" class="st3" width="49" height="230"/>
<rect x="80.5" y="117.5" width="31" height="140.5"/>
<rect x="136.5" y="117.5" width="31" height="140.5"/>
<rect x="253.5" y="117.5" width="31" height="140.5"/>
<rect x="309.5" y="117.5" width="31" height="140.5"/>
<rect x="654.5" y="117.5" width="31" height="140.5"/>
<rect x="710.5" y="117.5" width="31" height="140.5"/>
<rect x="426.5" y="117.5" width="31" height="140.5"/>
<rect x="482.5" y="117.5" width="31" height="140.5"/>
<rect x="539.5" y="117.5" width="31" height="140.5"/>
<rect x="824.5" y="117.5" width="31" height="140.5"/>
<rect x="880.5" y="117.5" width="31" height="140.5"/>
<rect x="937.5" y="117.5" width="31" height="140.5"/>
<rect x="322" y="798" width="160" height="185"/>
</svg>
