<?xml version="1.0" encoding="utf-8"?>
<!-- Generator: Adobe Illustrator 22.1.0, SVG Export Plug-In . SVG Version: 6.00 Build 0)  -->
<svg version="1.1" id="Слой_1" xmlns="http://www.w3.org/2000/svg" xmlns:xlink="http://www.w3.org/1999/xlink" x="0px" y="0px"
	 viewBox="0 0 1050 1485" style="enable-background:new 0 0 1050 1485;" xml:space="preserve">
<style type="text/css">
	.st0{fill:#FFFFFF;}
	.st1{fill:#009999;stroke:#000000;stroke-width:0.25;stroke-miterlimit:10;}
	.st2{fill:#F67F77;}
	.st3{fill:#FFFFFF;stroke:#000000;stroke-width:0.25;stroke-miterlimit:10;}
	.st4{fill:#42698A;}
	.st5{fill:#E90000;}
	.st6{fill:#C8DCDC;}
	.st7{font-family:'ArialMT';}
	.st8{font-size:33.444px;}
	.st9{font-size:27px;}
	.st10{fill:none;stroke:#FFFFFF;stroke-width:8;stroke-miterlimit:10;}
	.st11{fill:none;stroke:#FFFFFF;stroke-width:8;stroke-linecap:round;stroke-linejoin:round;stroke-miterlimit:10;}
	.st12{fill:#FFFFFF;stroke:#FFFFFF;stroke-width:3;stroke-linecap:round;stroke-linejoin:round;stroke-miterlimit:10;}
</style>
<image style="overflow:visible;enable-background:new    ;" width="3000" height="1856" xlink:href="A22395FD.jpg"  transform="matrix(1 0 0 1 1674 150)">
</image>
<rect x="1674" y="155" class="st0" width="1851" height="1851"/>
<rect x="3525" y="150" class="st0" width="1137" height="1137"/>
<rect x="3962" y="1287" class="st0" width="712" height="712"/>
<rect x="445.4" y="58.6" class="st1" width="551.1" height="577.4"/>
<rect x="61.5" y="58.7" class="st2" width="338.5" height="354.7"/>
<rect x="-1789.6" y="-35.4" class="st3" width="551.1" height="551.1"/>
<rect x="-1575.5" y="515.7" class="st3" width="338.5" height="338.5"/>
<rect x="-1787.5" y="645.8" class="st3" width="212" height="212"/>
<rect x="61.5" y="449.5" class="st4" width="338.5" height="581.8"/>
<rect x="445.5" y="676.9" class="st2" width="551.5" height="354.7"/>
<rect x="56.1" y="1072.3" class="st1" width="940.9" height="354.7"/>
<g>
	<g>
		<path class="st5" d="M573.5,234.2c18.1,8.5,59.3-12.9,49.1-35.9c-3.3-7.7-16.4-6.4-22.4-4c-21.6,8.5-36.3,32.4-45.5,52.7
			c-6.9,15.2-20.1,47-3.8,60c6.2,5,15.7,4.5,21.9-0.7c5.5-4.7,9-10.9,10.7-16.5c2.7-9,1.7-19.2-4.7-26.4c7.5-3.8,15.2-0.3,17.7,8.4
			c11.2,38.9-65.2,69.4-67.7,19.7c-1.5-28.8,17.7-56.7,35.4-78.1c13.7-16.5,50.1-41.6,64.2-17.7c14,23.7-19.2,51.3-41.5,54.3
			C574.6,251.6,568.1,244.1,573.5,234.2z"/>
		<path class="st6" d="M544.5,205.6l1.7-0.8l0.3-2.5l-2,1.5V205.6z M544.5,209.5l2.2,1.8l-0.3-2.8l-1.8-0.8v1.8H544.5z M541.7,211.2
			l2-1.7l-0.2-1.8l-1.5,0.8L541.7,211.2z M541.5,202.1l0.5,2.8l1.5,0.7l0.2-1.8L541.5,202.1z M550.4,202.6c0.7,1.2,1,2.2,0.7,2.2
			c-0.3,0.3-0.8-0.3-1.5-1.3l-2.2,1.7c-0.3,0-0.3,0-0.5,0c0.2,0.2,0.5,0.2,0.7,0c0,0,0,0,0-0.3l2.3,1.3l-0.3,0.5l-2.8-1.2l-1.5,1.2
			l1.5,1.2l3-1.2l0.2,0.3l-2,1.3c-0.2-0.2-0.3-0.2-0.3-0.2s-0.2,0-0.3,0l2.2,1.3c0.7-1,1.2-1.7,1.3-1.7c0.3,0.3,0,1.3-0.5,2.3
			c-0.7,1-1.3,1.8-1.7,1.7c0-0.2,0-1,0.7-2l-2.2-1.3c0,0.3,0,0.5,0.2,0.5h0.2v2.5l-0.3,0.2l-0.3,0.2l-2.2-1.2v-0.2
			c0-0.2,0-0.3-0.2-0.3v2.5c1,0,2,0.2,2,0.5s-1,0.5-2.2,0.5c-1.3,0-2.2-0.2-2.2-0.5s0.8-0.5,1.8-0.5v-2.5c-0.2,0-0.3,0.2-0.3,0.3
			c0,0,0,0.2,0.2,0.2l-2.2,1.2l-0.2-0.2H541v-2.5c0,0,0,0,0.2,0c0.2-0.2,0.2-0.3,0.2-0.5l-2.2,1.5c0.7,0.8,1,1.7,0.7,1.8
			c-0.3,0.2-1-0.7-1.7-1.7c-0.7-0.8-1-1.8-0.8-2.2c0.3,0,1,0.7,1.5,1.5l2.2-1.5c0,0-0.2,0-0.3,0.2c-0.2,0-0.2,0-0.3,0.2l-2-1.2
			l0.2-0.5l3,1l1.5-1.2l-1.5-1l-3,1.2v-0.5l1.8-1.2c0,0,0.2,0.2,0.3,0.2c0.2,0.2,0.5,0,0.7,0c-0.2,0-0.3,0-0.5-0.2l-2.3-1.3
			c-0.5,0.8-1.2,1.5-1.5,1.3c-0.2,0,0.2-1.2,0.8-2.2c0.5-1,1.2-1.8,1.5-1.7c0.2,0.2,0,1-0.7,2l2.3,1.3c0.3,0.2,0.5,0.2,0.5,0.5
			c0-0.3,0-0.7-0.3-0.7c-0.2-0.2-0.2-0.2-0.3-0.2l0.2-2.3l0.3-0.2l0.2-0.2l2.2,1c-0.2,0.3-0.2,0.3-0.2,0.3c0,0.3,0.2,0.5,0.3,0.5
			c0,0,0-0.2,0-0.3v-2.7c-1-0.2-1.8-0.3-1.8-0.7c0-0.3,0.8-0.5,2.2-0.5c1.2,0,2.2,0.2,2.2,0.5s-1,0.5-2,0.7v2.7
			c0,0.2-0.2,0.3-0.2,0.3c0.3,0,0.5-0.2,0.5-0.5c0,0-0.2,0-0.2-0.3l2.2-1l0.2,0.2h0.2l0.2,2.3c-0.2,0-0.2,0-0.3,0
			c-0.2,0.3-0.3,0.5-0.2,0.7c0,0,0.2-0.2,0.3-0.3l2.3-1.3c-0.7-1-0.8-1.8-0.7-2C548.9,201,549.6,201.6,550.4,202.6z"/>
		<path class="st6" d="M585.8,338.5c0.2,0,0.2-0.2,0.2-0.2h-0.2C585.8,338.4,585.8,338.4,585.8,338.5z M583.5,340.2
			c0.7-0.3,1.5-0.7,2.2-1.3l-0.5-0.7l-2-1l-0.2,2.2L583.5,340.2z M582.8,340.2L582.8,340.2h0.2H582.8z M581.8,340.2h0.2H581.8z
			 M579.3,339c0.5,0.5,1.5,0.8,2.2,1.2l0.3-0.8l-0.2-2l-1.8,0.8L579.3,339z M579.2,338.5H579c0.2,0.2,0.2,0.2,0.2,0.2V338.5z
			 M578.5,337.9L578.5,337.9h0.2C578.5,337.9,578.5,337.9,578.5,337.9z M578,335.8c0,0.5,0,1,0.2,1.7l1-0.3l1.7-1.2l-1.7-1.3h-1
			C578,335,578,335.3,578,335.8z M578.8,334.3l-0.3-0.3c-0.3,0.2-0.3,0.2-0.3,0.3C578.5,334.5,578.5,334.5,578.8,334.3z M579.2,333
			c-0.3,0-0.3,0.2-0.3,0.2l0.5,0.3C579.3,333.3,579.2,333,579.2,333z M581.3,331.3c-0.8,0.2-1.5,0.8-2.2,1.5l0.7,0.8l1.8,0.8l0.2-2
			L581.3,331.3z M582,332v-0.7c-0.2,0-0.2,0-0.3,0C581.7,331.5,581.8,331.8,582,332z M583.3,331.3c-0.2,0-0.3,0-0.5,0v0.7
			C583,331.8,583.3,331.7,583.3,331.3z M585.5,332.7c-0.5-0.5-1.2-1.2-2-1.2l-0.5,1l0.2,2l1.8-1L585.5,332.7z M585.5,333.5l0.5-0.3
			c-0.2-0.2-0.2-0.2-0.3-0.3C585.5,333,585.5,333.2,585.5,333.5z M586.5,334.2v-0.3l-0.5,0.3C586.2,334.2,586.5,334.2,586.5,334.2z
			 M586.8,335.8c0-0.7,0-1-0.2-1.3l-1.2,0.2l-1.7,1.2l1.8,1.3h1C586.8,336.9,586.8,336.2,586.8,335.8z M586.3,337.5l0.2,0.2
			c0-0.2,0-0.2,0-0.2H586.3z M591.9,339.5c0.5,0.3,0.8,1.3,0.5,2s-1.3,0.8-2,0.5c-0.5-0.2-0.7-1-0.7-1.5l-3.2-1.8
			c-0.2,0-0.3,0.2-0.3,0.2c0.3,0.3,0.3,0.3,0.5,0.3l2.3,2.8l-0.8,0.2l-2.3-3c-0.5,0.7-1.3,1.2-2.3,1.3l1.5,3.5l-0.5,0.5l-1.5-3.3
			c0.2-0.2,0.2-0.2,0.2-0.5c0-0.2,0-0.2,0-0.2c-0.2,0-0.2,0-0.3,0v4c0.7,0,1,0.7,1,1.3c0,0.8-0.5,1.5-1.3,1.5s-1.3-0.7-1.3-1.5
			c0-0.7,0.3-1.2,1-1.3l-0.2-4c-0.2,0-0.2,0-0.3,0c0,0,0,0,0,0.2c0,0.3,0,0.3,0.2,0.5l-1.5,3.3l-0.5-0.5l1.5-3.5
			c-0.8-0.2-1.5-0.7-2.2-1.2l-2.2,3h-0.8l2.3-3.2c0,0,0.2,0,0.3,0c0-0.2-0.2-0.3-0.3-0.3l-3.2,1.8c0.3,0.7,0,1.3-0.5,1.7
			c-0.7,0.5-1.5,0.3-2-0.3c-0.5-0.7-0.2-1.7,0.5-2.2c0.5-0.3,1.2,0,1.7,0.3l3.2-2l-0.2-0.3c-0.2,0-0.3,0.2-0.3,0.3l-3.7,0.5l0.2-0.7
			l3.7-0.5c-0.2-0.7-0.3-1.2-0.3-1.7s0.2-0.8,0.2-1.3l-3.5-0.3l-0.2-0.7l3.7,0.3c0,0.2,0,0.3,0.2,0.3c0-0.2,0.2-0.3,0.2-0.3
			l-3.5-2.2c-0.5,0.5-1.2,0.5-1.7,0.2c-0.7-0.3-1-1.2-0.5-1.8c0.3-0.7,1.2-1,1.8-0.5c0.7,0.3,0.8,1,0.7,1.7l3.7,1.8c0,0,0-0.2,0-0.3
			l-2.5-2.8l0.7-0.3l2.2,3c0.7-0.7,1.5-1.2,2.3-1.5l-1.3-3.2l0.5-0.5l1.5,3.5c0,0-0.2,0-0.2,0.2c0.2-0.2,0.2-0.2,0.3-0.2l0.2-4
			c-0.7-0.2-1-0.7-1-1.3c0-0.8,0.5-1.5,1.3-1.5s1.3,0.7,1.3,1.5c0,0.7-0.3,1.2-1,1.3v4c0.2,0,0.3,0.2,0.5,0.2c0-0.2-0.2-0.2-0.2-0.2
			l1.3-3.5l0.5,0.5l-1.2,3.2c0.7,0.3,1.5,0.7,2,1.2l2-2.8l0.7,0.2l-2,3c-0.2,0-0.3,0-0.3,0c0,0.2,0,0.3,0.3,0.5l3.3-2.2
			c-0.2-0.7,0-1.3,0.5-1.8c0.7-0.3,1.7-0.2,2,0.5c0.5,0.7,0.3,1.7-0.3,2c-0.7,0.3-1.3,0.3-1.8-0.2l-3.3,2.3c0,0,0,0.2,0.2,0.2
			c0,0,0,0,0.2-0.2l3.7-0.5l-0.2,0.7l-3.7,0.7c0.2,0.3,0.2,0.7,0.2,1.3c0,0.3,0,1-0.2,1.3l3.7,0.3l0.3,0.8l-3.8-0.5
			c0,0,0-0.2-0.2-0.3c-0.2,0.2-0.2,0.3-0.2,0.3l3.2,2C590.3,339.4,591.2,339.2,591.9,339.5z"/>
		<path class="st6" d="M536.7,328.7c-0.2,0-0.3,0-0.3,0l2.3,1.3l-0.2,0.2l-2.5-1.3c0,0.3,0.2,0.3,0.2,0.3c0.2,0.2,0.2,0.2,0.2,0.2
			l0.3,0.8h-0.5l-0.5-1.3l-1-0.5v1.2l1,1l-0.2,0.3l-0.8-0.7c0-0.2,0-0.3,0-0.5l-0.2,3h-0.3v-3c-0.2,0.2-0.2,0.3-0.2,0.5l-0.7,0.7
			l-0.2-0.3l0.8-1v-1l-0.8,0.3l-0.5,1.5l-0.3-0.2v-0.8c0.2,0,0.2,0,0.3,0c0,0,0.2-0.2,0.2-0.3l-2.5,1.5l-0.2-0.3l2.3-1.5
			c-0.2,0-0.2,0-0.3,0c0,0,0,0.2-0.2,0.2l-0.8-0.2v-0.3h1.7l0.8-0.5l-0.8-0.5l-1.7,0.2v-0.3l0.8-0.3c0.2,0,0.2,0,0.3,0.2
			c0,0,0.2,0,0.3,0l-2.7-1.7l0.2-0.2l2.7,1.5c0-0.2,0-0.3-0.2-0.3c0-0.2-0.3-0.2-0.3-0.2l-0.2-0.8h0.3l0.7,1.3l0.8,0.5v-1l-0.8-1.3
			l0.2-0.2l0.7,0.7v0.2c0,0.2,0,0.3,0.2,0.3v-3.2h0.3l0.2,3.2c0,0,0.2-0.2,0.2-0.3s-0.2-0.2-0.2-0.2l0.8-0.7l0.2,0.2l-1,1.3v0.8
			l0.8-0.3l0.5-1.5l0.5,0.2l-0.2,0.8c-0.2,0-0.2,0-0.3,0c0,0.2-0.2,0.3-0.2,0.3l2.7-1.7l0.2,0.5l-2.5,1.5c0,0.2,0.2,0,0.3,0l0.2-0.2
			l0.8,0.3v0.3l-1.5-0.2l-0.8,0.7l0.8,0.5l1.5-0.3l0.2,0.3L536.7,328.7z"/>
	</g>
	<g>
		<path class="st5" d="M653.2,255.9c0,3.7-2.5,6.7-5.7,6.7c-3,0-5.5-3-5.5-6.7c0-3.8,2.5-6.9,5.5-6.9
			C650.7,249.1,653.2,252.1,653.2,255.9z M646.3,262.3l6.2,2.3c-0.7,2.2-1.7,4.5-2.7,6.9c-8,17-24.6,34.8-38.3,28.6
			c-7.2-3.3-9.2-14.5-2.3-28.2c13-26.2,29.3-35.9,39.4-31.4c2.2,1,4.7,3.7,4.7,6.5c-6.9-5.5-18.4-2-29.6,21.9
			c-4.8,10.2-5,18.2-0.3,20.7c4.5,2.7,14.5-8.4,20.1-20.1C644.5,267,645.5,264.6,646.3,262.3z M647,261.6c2.2-5.2,1.5-9-0.5-9
			c-2.7,0-3.5,7.5,2.2,8.4c5.7,0.2,15.2-1.8,19.1-5.2l2.2,4.5c-7.5,4.8-15.5,6.7-22.2,6.2c-12.2-2-10.7-19.6-0.2-19.6
			c7.2,0,8.9,8.5,4.7,18.1L647,261.6z"/>
		<path class="st6" d="M635.6,216.2l1.7-0.8l0.3-2.5l-2,1.5V216.2z M635.6,220l2.2,1.8l-0.3-2.8l-1.8-0.8v1.8H635.6z M632.8,221.7
			l2-1.7l-0.2-1.8l-1.5,0.8L632.8,221.7z M632.6,212.7l0.5,2.8l1.5,0.7l0.2-1.8L632.6,212.7z M641.5,213.2c0.7,1.2,1,2.2,0.7,2.2
			c-0.3,0.3-0.8-0.3-1.5-1.3l-2.2,1.7c-0.3,0-0.3,0-0.5,0c0.2,0.2,0.5,0.2,0.7,0c0,0,0,0,0-0.3l2.3,1.3l-0.3,0.5l-2.8-1.2l-1.5,1.2
			l1.5,1.2l3-1.2l0.2,0.3l-2,1.3c-0.2-0.2-0.3-0.2-0.3-0.2s-0.2,0-0.3,0l2.2,1.3c0.7-1,1.2-1.7,1.3-1.7c0.3,0.3,0,1.3-0.5,2.3
			c-0.7,1-1.3,1.8-1.7,1.7c0-0.2,0-1,0.7-2l-2.2-1.3c0,0.3,0,0.5,0.2,0.5h0.2v2.5l-0.3,0.2l-0.3,0.2l-2.2-1.2V221
			c0-0.2,0-0.3-0.2-0.3v2.5c1,0,2,0.2,2,0.5s-1,0.5-2.2,0.5c-1.3,0-2.2-0.2-2.2-0.5s0.8-0.5,1.8-0.5v-2.5c-0.2,0-0.3,0.2-0.3,0.3
			c0,0,0,0.2,0.2,0.2l-2.2,1.2l-0.2-0.2h-0.3v-2.5c0,0,0,0,0.2,0c0.2-0.2,0.2-0.3,0.2-0.5l-2.2,1.5c0.7,0.8,1,1.7,0.7,1.8
			c-0.3,0.2-1-0.7-1.7-1.7c-0.7-0.8-1-1.8-0.8-2.2c0.3,0,1,0.7,1.5,1.5l2.2-1.5c0,0-0.2,0-0.3,0.2c-0.2,0-0.2,0-0.3,0.2l-2-1.2
			l0.2-0.5l3,1l1.5-1.2l-1.5-1l-3,1.2v-0.5l1.8-1.2c0,0,0.2,0.2,0.3,0.2c0.2,0.2,0.5,0,0.7,0c-0.2,0-0.3,0-0.5-0.2l-2.3-1.3
			c-0.5,0.8-1.2,1.5-1.5,1.3c-0.2,0,0.2-1.2,0.8-2.2c0.5-1,1.2-1.8,1.5-1.7c0.2,0.2,0,1-0.7,2l2.3,1.3c0.3,0.2,0.5,0.2,0.5,0.5
			c0-0.3,0-0.7-0.3-0.7c-0.2-0.2-0.2-0.2-0.3-0.2l0.2-2.3l0.3-0.2l0.2-0.2l2.2,1c-0.2,0.3-0.2,0.3-0.2,0.3c0,0.3,0.2,0.5,0.3,0.5
			c0,0,0-0.2,0-0.3V211c-1-0.2-1.8-0.3-1.8-0.7s0.8-0.5,2.2-0.5c1.2,0,2.2,0.2,2.2,0.5s-1,0.5-2,0.7v2.7c0,0.2-0.2,0.3-0.2,0.3
			c0.3,0,0.5-0.2,0.5-0.5c0,0-0.2,0-0.2-0.3l2.2-1l0.2,0.2h0.2l0.2,2.3c-0.2,0-0.2,0-0.3,0c-0.2,0.3-0.3,0.5-0.2,0.7
			c0,0,0.2-0.2,0.3-0.3l2.3-1.3c-0.7-1-0.8-1.8-0.7-2C640,211.5,640.7,212.2,641.5,213.2z"/>
		<path class="st6" d="M635.1,321.8c-0.2,0-0.3,0-0.3,0l2.3,1.3l-0.2,0.2l-2.5-1.3c0,0.3,0.2,0.3,0.2,0.3c0.2,0.2,0.2,0.2,0.2,0.2
			l0.3,0.8h-0.5l-0.5-1.3l-1-0.5v1.2l1,1L634,324l-0.8-0.7c0-0.2,0-0.3,0-0.5l-0.2,3h-0.3v-3c-0.2,0.2-0.2,0.3-0.2,0.5l-0.7,0.7
			l-0.2-0.3l0.8-1v-1l-0.8,0.3l-0.5,1.5l-0.3-0.2v-0.8c0.2,0,0.2,0,0.3,0c0,0,0.2-0.2,0.2-0.3l-2.5,1.5l-0.2-0.3l2.3-1.5
			c-0.2,0-0.2,0-0.3,0c0,0,0,0.2-0.2,0.2l-0.8-0.2v-0.3h1.7l0.8-0.5l-0.8-0.5l-1.7,0.2v-0.3l0.8-0.3c0.2,0,0.2,0,0.3,0.2
			c0,0,0.2,0,0.3,0l-2.7-1.7l0.2-0.2l2.7,1.5c0-0.2,0-0.3-0.2-0.3c0-0.2-0.3-0.2-0.3-0.2l-0.2-0.8h0.3l0.7,1.3l0.8,0.5v-1l-0.8-1.3
			l0.2-0.2l0.7,0.7v0.2c0,0.2,0,0.3,0.2,0.3V316h0.3l0.2,3.2c0,0,0.2-0.2,0.2-0.3s-0.2-0.2-0.2-0.2l0.8-0.7l0.2,0.2l-1,1.3v0.8
			l0.8-0.3l0.5-1.5l0.5,0.2l-0.2,0.8c-0.2,0-0.2,0-0.3,0c0,0.2-0.2,0.3-0.2,0.3l2.7-1.7l0.2,0.5l-2.5,1.5c0,0.2,0.2,0,0.3,0l0.2-0.2
			l0.8,0.3v0.3l-1.5-0.2l-0.8,0.7l0.8,0.5l1.5-0.3l0.2,0.3L635.1,321.8z"/>
	</g>
	<g>
		<path class="st5" d="M705.5,270.3l3.8,4c-8,17-16.2,27.1-26.4,27.1c-10,0-13.5-9.2,4.8-36.9c4.8-7.2,7.4-12.5,5-12.5
			c-4.5,0-21.9,21.9-32.9,44.6l-1.2-8.2c14.5-29.4,31.4-46.5,42.1-46.5c5.7,0,8.9,6.7,4,15.4c-16,28.4-18.9,33.8-16,33.8
			C693.3,291.1,699.7,282.7,705.5,270.3z M685.8,241.9l-27.7,59h-13.9l28.1-59H685.8z"/>
		<path class="st6" d="M679.6,316l1.7-0.8l0.3-2.5l-2,1.5V316z M679.6,319.8l2.2,1.8l-0.3-2.8l-1.8-0.8v1.8H679.6z M676.8,321.5
			l2-1.7l-0.2-1.8l-1.5,0.8L676.8,321.5z M676.6,312.4l0.5,2.8l1.5,0.7l0.2-1.8L676.6,312.4z M685.5,312.9c0.7,1.2,1,2.2,0.7,2.2
			c-0.3,0.3-0.8-0.3-1.5-1.3l-2.2,1.7c-0.3,0-0.3,0-0.5,0c0.2,0.2,0.5,0.2,0.7,0c0,0,0,0,0-0.3l2.3,1.3l-0.3,0.5l-2.8-1.2l-1.5,1.2
			l1.5,1.2l3-1.2l0.2,0.3l-2,1.3c-0.2-0.2-0.3-0.2-0.3-0.2s-0.2,0-0.3,0l2.2,1.3c0.7-1,1.2-1.7,1.3-1.7c0.3,0.3,0,1.3-0.5,2.3
			c-0.7,1-1.3,1.8-1.7,1.7c0-0.2,0-1,0.7-2l-2.2-1.3c0,0.3,0,0.5,0.2,0.5h0.2v2.5l-0.3,0.2l-0.3,0.2l-2.2-1.2v-0.2
			c0-0.2,0-0.3-0.2-0.3v2.5c1,0,2,0.2,2,0.5s-1,0.5-2.2,0.5c-1.3,0-2.2-0.2-2.2-0.5s0.8-0.5,1.8-0.5v-2.5c-0.2,0-0.3,0.2-0.3,0.3
			c0,0,0,0.2,0.2,0.2l-2.2,1.2l-0.2-0.2h-0.3v-2.5c0,0,0,0,0.2,0c0.2-0.2,0.2-0.3,0.2-0.5l-2.2,1.5c0.7,0.8,1,1.7,0.7,1.8
			s-1-0.7-1.7-1.7c-0.7-0.8-1-1.8-0.8-2.2c0.3,0,1,0.7,1.5,1.5l2.2-1.5c0,0-0.2,0-0.3,0.2c-0.2,0-0.2,0-0.3,0.2l-2-1.2l0.2-0.5l3,1
			l1.5-1.2l-1.5-1l-3,1.2v-0.5l1.8-1.2c0,0,0.2,0.2,0.3,0.2c0.2,0.2,0.5,0,0.7,0c-0.2,0-0.3,0-0.5-0.2L674,314
			c-0.5,0.8-1.2,1.5-1.5,1.3c-0.2,0,0.2-1.2,0.8-2.2c0.5-1,1.2-1.8,1.5-1.7c0.2,0.2,0,1-0.7,2l2.3,1.3c0.3,0.2,0.5,0.2,0.5,0.5
			c0-0.3,0-0.7-0.3-0.7c-0.2-0.2-0.2-0.2-0.3-0.2l0.2-2.3l0.3-0.2l0.2-0.2l2.2,1c-0.2,0.3-0.2,0.3-0.2,0.3c0,0.3,0.2,0.5,0.3,0.5
			c0,0,0-0.2,0-0.3v-2.7c-1-0.2-1.8-0.3-1.8-0.7c0-0.3,0.8-0.5,2.2-0.5c1.2,0,2.2,0.2,2.2,0.5s-1,0.5-2,0.7v2.7
			c0,0.2-0.2,0.3-0.2,0.3c0.3,0,0.5-0.2,0.5-0.5c0,0-0.2,0-0.2-0.3l2.2-1l0.2,0.2h0.2l0.2,2.3c-0.2,0-0.2,0-0.3,0
			c-0.2,0.3-0.3,0.5-0.2,0.7c0,0,0.2-0.2,0.3-0.3l2.3-1.3c-0.7-1-0.8-1.8-0.7-2C684,311.3,684.6,311.9,685.5,312.9z"/>
		<path class="st6" d="M681.9,222.4c0.2,0,0.2-0.2,0.2-0.2h-0.2C681.9,222.2,681.9,222.2,681.9,222.4z M679.6,224
			c0.7-0.3,1.5-0.7,2.2-1.3l-0.5-0.7l-2-1l-0.2,2.2L679.6,224z M678.9,224L678.9,224h0.2H678.9z M677.9,224h0.2H677.9z M675.4,222.9
			c0.5,0.5,1.5,0.8,2.2,1.2l0.3-0.8l-0.2-2l-1.8,0.8L675.4,222.9z M675.3,222.4h-0.2c0.2,0.2,0.2,0.2,0.2,0.2V222.4z M674.6,221.7
			L674.6,221.7h0.2C674.6,221.7,674.6,221.7,674.6,221.7z M674.1,219.7c0,0.5,0,1,0.2,1.7l1-0.3l1.7-1.2l-1.7-1.3h-1
			C674.1,218.8,674.1,219.2,674.1,219.7z M674.9,218.2l-0.3-0.3c-0.3,0.2-0.3,0.2-0.3,0.3C674.6,218.3,674.6,218.3,674.9,218.2z
			 M675.3,216.8c-0.3,0-0.3,0.2-0.3,0.2l0.5,0.3C675.4,217.2,675.3,216.8,675.3,216.8z M677.4,215.2c-0.8,0.2-1.5,0.8-2.2,1.5
			l0.7,0.8l1.8,0.8l0.2-2L677.4,215.2z M678.1,215.8v-0.7c-0.2,0-0.2,0-0.3,0C677.8,215.3,677.9,215.7,678.1,215.8z M679.4,215.2
			c-0.2,0-0.3,0-0.5,0v0.7C679.1,215.7,679.4,215.5,679.4,215.2z M681.6,216.5c-0.5-0.5-1.2-1.2-2-1.2l-0.5,1l0.2,2l1.8-1
			L681.6,216.5z M681.6,217.3l0.5-0.3c-0.2-0.2-0.2-0.2-0.3-0.3C681.6,216.8,681.6,217,681.6,217.3z M682.6,218v-0.3l-0.5,0.3
			C682.3,218,682.6,218,682.6,218z M682.9,219.7c0-0.7,0-1-0.2-1.3l-1.2,0.2l-1.7,1.2l1.8,1.3h1C682.9,220.7,682.9,220,682.9,219.7z
			 M682.4,221.3l0.2,0.2c0-0.2,0-0.2,0-0.2H682.4z M688,223.4c0.5,0.3,0.8,1.3,0.5,2s-1.3,0.8-2,0.5c-0.5-0.2-0.7-1-0.7-1.5
			l-3.2-1.8c-0.2,0-0.3,0.2-0.3,0.2c0.3,0.3,0.3,0.3,0.5,0.3l2.3,2.8l-0.8,0.2l-2.3-3c-0.5,0.7-1.3,1.2-2.3,1.3l1.5,3.5l-0.5,0.5
			l-1.5-3.3c0.2-0.2,0.2-0.2,0.2-0.5c0-0.2,0-0.2,0-0.2c-0.2,0-0.2,0-0.3,0v4c0.7,0,1,0.7,1,1.3c0,0.8-0.5,1.5-1.3,1.5
			s-1.3-0.7-1.3-1.5c0-0.7,0.3-1.2,1-1.3l-0.2-4c-0.2,0-0.2,0-0.3,0c0,0,0,0,0,0.2c0,0.3,0,0.3,0.2,0.5l-1.5,3.3l-0.5-0.5l1.5-3.5
			c-0.8-0.2-1.5-0.7-2.2-1.2l-2.2,3h-0.8l2.3-3.2c0,0,0.2,0,0.3,0c0-0.2-0.2-0.3-0.3-0.3l-3.2,1.8c0.3,0.7,0,1.3-0.5,1.7
			c-0.7,0.5-1.5,0.3-2-0.3s-0.2-1.7,0.5-2.2c0.5-0.3,1.2,0,1.7,0.3l3.2-2l-0.2-0.3c-0.2,0-0.3,0.2-0.3,0.3l-3.7,0.5l0.2-0.7l3.7-0.5
			c-0.2-0.7-0.3-1.2-0.3-1.7s0.2-0.8,0.2-1.3l-3.5-0.3l-0.2-0.7l3.7,0.3c0,0.2,0,0.3,0.2,0.3c0-0.2,0.2-0.3,0.2-0.3l-3.5-2.2
			c-0.5,0.5-1.2,0.5-1.7,0.2c-0.7-0.3-1-1.2-0.5-1.8c0.3-0.7,1.2-1,1.8-0.5c0.7,0.3,0.8,1,0.7,1.7l3.7,1.8c0,0,0-0.2,0-0.3l-2.5-2.8
			l0.7-0.3l2.2,3c0.7-0.7,1.5-1.2,2.3-1.5l-1.3-3.2l0.5-0.5l1.5,3.5c0,0-0.2,0-0.2,0.2c0.2-0.2,0.2-0.2,0.3-0.2l0.2-4
			c-0.7-0.2-1-0.7-1-1.3c0-0.8,0.5-1.5,1.3-1.5s1.3,0.7,1.3,1.5c0,0.7-0.3,1.2-1,1.3v4c0.2,0,0.3,0.2,0.5,0.2c0-0.2-0.2-0.2-0.2-0.2
			l1.3-3.5l0.5,0.5l-1.2,3.2c0.7,0.3,1.5,0.7,2,1.2l2-2.8l0.7,0.2l-2,3c-0.2,0-0.3,0-0.3,0c0,0.2,0,0.3,0.3,0.5l3.3-2.2
			c-0.2-0.7,0-1.3,0.5-1.8c0.7-0.3,1.7-0.2,2,0.5c0.5,0.7,0.3,1.7-0.3,2c-0.7,0.3-1.3,0.3-1.8-0.2l-3.3,2.3c0,0,0,0.2,0.2,0.2
			c0,0,0,0,0.2-0.2l3.7-0.5l-0.2,0.7l-3.7,0.7c0.2,0.3,0.2,0.7,0.2,1.3c0,0.3,0,1-0.2,1.3l3.7,0.3l0.3,0.8l-3.8-0.5
			c0,0,0-0.2-0.2-0.3c-0.2,0.2-0.2,0.3-0.2,0.3l3.2,2C686.5,223.2,687.3,223,688,223.4z"/>
	</g>
	<g>
		<path class="st5" d="M749.6,270.3l3.8,4c-13.5,20.6-32.1,34.1-45.6,25.7c-7-4.3-8.9-16.9-2-30.6c13.2-26.2,30.9-32.8,39.3-29.1
			c4.8,2.3,6.2,11,3,18.9c-3.3,7.7-8.7,9.7-11,9.7c-4,0-6.4-3.3-5.3-7.4c1.2-4.2,5.2-7.4,9.4-7.4c0.7,0,1.3,0.2,2,0.3
			c2-3.2,1.2-7-0.7-8.2c-5.2-3.5-16.9,8.4-22.4,20.1c-4.7,10.4-6.4,20.7-0.5,23.6C726.9,293.7,739.9,283.9,749.6,270.3z"/>
		<path class="st6" d="M729.4,222.9l1.7-0.8l0.3-2.5l-2,1.5V222.9z M729.4,226.7l2.2,1.8l-0.3-2.8l-1.8-0.8v1.8H729.4z M726.6,228.4
			l2-1.7l-0.2-1.8l-1.5,0.8L726.6,228.4z M726.4,219.3l0.5,2.8l1.5,0.7l0.2-1.8L726.4,219.3z M735.3,219.8c0.7,1.2,1,2.2,0.7,2.2
			c-0.3,0.3-0.8-0.3-1.5-1.3l-2.2,1.7c-0.3,0-0.3,0-0.5,0c0.2,0.2,0.5,0.2,0.7,0c0,0,0,0,0-0.3l2.3,1.3l-0.3,0.5l-2.8-1.2l-1.5,1.2
			l1.5,1.2l3-1.2l0.2,0.3l-2,1.3c-0.2-0.2-0.3-0.2-0.3-0.2s-0.2,0-0.3,0l2.2,1.3c0.7-1,1.2-1.7,1.3-1.7c0.3,0.3,0,1.3-0.5,2.3
			c-0.7,1-1.3,1.8-1.7,1.7c0-0.2,0-1,0.7-2l-2.2-1.3c0,0.3,0,0.5,0.2,0.5h0.2v2.5l-0.3,0.2l-0.3,0.2l-2.2-1.2v-0.2
			c0-0.2,0-0.3-0.2-0.3v2.5c1,0,2,0.2,2,0.5s-1,0.5-2.2,0.5c-1.3,0-2.2-0.2-2.2-0.5s0.8-0.5,1.8-0.5v-2.5c-0.2,0-0.3,0.2-0.3,0.3
			c0,0,0,0.2,0.2,0.2l-2.2,1.2l-0.2-0.2h-0.3v-2.5c0,0,0,0,0.2,0c0.2-0.2,0.2-0.3,0.2-0.5l-2.2,1.5c0.7,0.8,1,1.7,0.7,1.8
			c-0.3,0.2-1-0.7-1.7-1.7c-0.7-0.8-1-1.8-0.8-2.2c0.3,0,1,0.7,1.5,1.5l2.2-1.5c0,0-0.2,0-0.3,0.2c-0.2,0-0.2,0-0.3,0.2l-2-1.2
			l0.2-0.5l3,1l1.5-1.2l-1.5-1l-3,1.2v-0.5l1.8-1.2c0,0,0.2,0.2,0.3,0.2c0.2,0.2,0.5,0,0.7,0c-0.2,0-0.3,0-0.5-0.2l-2.3-1.3
			c-0.5,0.8-1.2,1.5-1.5,1.3c-0.2,0,0.2-1.2,0.8-2.2c0.5-1,1.2-1.8,1.5-1.7c0.2,0.2,0,1-0.7,2l2.3,1.3c0.3,0.2,0.5,0.2,0.5,0.5
			c0-0.3,0-0.7-0.3-0.7c-0.2-0.2-0.2-0.2-0.3-0.2l0.2-2.3l0.3-0.2l0.2-0.2l2.2,1c-0.2,0.3-0.2,0.3-0.2,0.3c0,0.3,0.2,0.5,0.3,0.5
			c0,0,0-0.2,0-0.3v-2.7c-1-0.2-1.8-0.3-1.8-0.7c0-0.3,0.8-0.5,2.2-0.5c1.2,0,2.2,0.2,2.2,0.5s-1,0.5-2,0.7v2.7
			c0,0.2-0.2,0.3-0.2,0.3c0.3,0,0.5-0.2,0.5-0.5c0,0-0.2,0-0.2-0.3l2.2-1l0.2,0.2h0.2l0.2,2.3c-0.2,0-0.2,0-0.3,0
			c-0.2,0.3-0.3,0.5-0.2,0.7c0,0,0.2-0.2,0.3-0.3l2.3-1.3c-0.7-1-0.8-1.8-0.7-2C733.8,218.2,734.4,218.8,735.3,219.8z"/>
		<path class="st6" d="M731.9,329.8c-0.2,0-0.3,0-0.3,0l2.3,1.3l-0.2,0.2l-2.5-1.3c0,0.3,0.2,0.3,0.2,0.3c0.2,0.2,0.2,0.2,0.2,0.2
			l0.3,0.8h-0.5l-0.5-1.3l-1-0.5v1.2l1,1l-0.2,0.3l-0.8-0.7c0-0.2,0-0.3,0-0.5l-0.2,3h-0.3v-3c-0.2,0.2-0.2,0.3-0.2,0.5l-0.7,0.7
			l-0.2-0.3l0.8-1v-1l-0.8,0.3l-0.5,1.5l-0.3-0.2v-0.8c0.2,0,0.2,0,0.3,0c0,0,0.2-0.2,0.2-0.3l-2.5,1.5l-0.2-0.3l2.3-1.5
			c-0.2,0-0.2,0-0.3,0c0,0,0,0.2-0.2,0.2l-0.8-0.2v-0.3h1.7l0.8-0.5l-0.8-0.5l-1.7,0.2v-0.3l0.8-0.3c0.2,0,0.2,0,0.3,0.2
			c0,0,0.2,0,0.3,0l-2.7-1.7l0.2-0.2l2.7,1.5c0-0.2,0-0.3-0.2-0.3c0-0.2-0.3-0.2-0.3-0.2l-0.2-0.8h0.3l0.7,1.3l0.8,0.5v-1l-0.8-1.3
			l0.2-0.2l0.7,0.7v0.2c0,0.2,0,0.3,0.2,0.3V324h0.3l0.2,3.2c0,0,0.2-0.2,0.2-0.3s-0.2-0.2-0.2-0.2l0.8-0.7l0.2,0.2l-1,1.3v0.8
			l0.8-0.3l0.5-1.5l0.5,0.2l-0.2,0.8c-0.2,0-0.2,0-0.3,0c0,0.2-0.2,0.3-0.2,0.3l2.7-1.7l0.2,0.5l-2.5,1.5c0,0.2,0.2,0,0.3,0l0.2-0.2
			l0.8,0.3v0.3l-1.5-0.2l-0.8,0.7l0.8,0.5l1.5-0.3l0.2,0.3L731.9,329.8z"/>
	</g>
	<g>
		<path class="st5" d="M795.4,270.3l3.8,4c-12,20.7-33.8,34.1-47.3,25.7c-7-4.3-8.9-16.9-2-30.6c13-26.2,31.1-33.1,39.1-29.1
			c6.5,3.3,7.9,14.5,0.8,24.9c-11.9,17.2-31.8,17.9-29.6,2.7c0.3-2.2,5-5.2,3.8-1.5c-2,6.4,8,2.8,16.7-6.4
			c5.7-6.2,7.5-12.5,5.7-13.7c-5.3-3.5-16.9,8.4-22.4,20.1c-4.8,10.4-6.4,20.7-0.5,23.6C771,293.7,788.1,284,795.4,270.3z"/>
		<path class="st6" d="M776,327.7c0.2,0,0.2-0.2,0.2-0.2H776C776,327.5,776,327.5,776,327.7z M773.7,329.3c0.7-0.3,1.5-0.7,2.2-1.3
			l-0.5-0.7l-2-1l-0.2,2.2L773.7,329.3z M773,329.3L773,329.3h0.2H773z M772,329.3h0.2H772z M769.5,328.2c0.5,0.5,1.5,0.8,2.2,1.2
			l0.3-0.8l-0.2-2l-1.8,0.8L769.5,328.2z M769.4,327.7h-0.2c0.2,0.2,0.2,0.2,0.2,0.2V327.7z M768.7,327L768.7,327h0.2
			C768.7,327,768.7,327,768.7,327z M768.2,325c0,0.5,0,1,0.2,1.7l1-0.3l1.7-1.2l-1.7-1.3h-1C768.2,324.1,768.2,324.5,768.2,325z
			 M769,323.5l-0.3-0.3c-0.3,0.2-0.3,0.2-0.3,0.3C768.7,323.6,768.7,323.6,769,323.5z M769.4,322.1c-0.3,0-0.3,0.2-0.3,0.2l0.5,0.3
			C769.5,322.5,769.4,322.1,769.4,322.1z M771.5,320.5c-0.8,0.2-1.5,0.8-2.2,1.5l0.7,0.8l1.8,0.8l0.2-2L771.5,320.5z M772.2,321.1
			v-0.7c-0.2,0-0.2,0-0.3,0C771.9,320.6,772,321,772.2,321.1z M773.5,320.5c-0.2,0-0.3,0-0.5,0v0.7
			C773.2,321,773.5,320.8,773.5,320.5z M775.7,321.8c-0.5-0.5-1.2-1.2-2-1.2l-0.5,1l0.2,2l1.8-1L775.7,321.8z M775.7,322.6l0.5-0.3
			c-0.2-0.2-0.2-0.2-0.3-0.3C775.7,322.1,775.7,322.3,775.7,322.6z M776.7,323.3V323l-0.5,0.3C776.4,323.3,776.7,323.3,776.7,323.3z
			 M777.1,325c0-0.7,0-1-0.2-1.3l-1.2,0.2L774,325l1.8,1.3h1C777.1,326,777.1,325.3,777.1,325z M776.6,326.7l0.2,0.2
			c0-0.2,0-0.2,0-0.2H776.6z M782.1,328.7c0.5,0.3,0.8,1.3,0.5,2s-1.3,0.8-2,0.5c-0.5-0.2-0.7-1-0.7-1.5l-3.2-1.8
			c-0.2,0-0.3,0.2-0.3,0.2c0.3,0.3,0.3,0.3,0.5,0.3l2.3,2.8l-0.8,0.2l-2.3-3c-0.5,0.7-1.3,1.2-2.3,1.3l1.5,3.5l-0.5,0.5l-1.5-3.3
			c0.2-0.2,0.2-0.2,0.2-0.5c0-0.2,0-0.2,0-0.2c-0.2,0-0.2,0-0.3,0v4c0.7,0,1,0.7,1,1.3c0,0.8-0.5,1.5-1.3,1.5s-1.3-0.7-1.3-1.5
			c0-0.7,0.3-1.2,1-1.3l-0.2-4c-0.2,0-0.2,0-0.3,0c0,0,0,0,0,0.2c0,0.3,0,0.3,0.2,0.5l-1.5,3.3l-0.5-0.5l1.5-3.5
			c-0.8-0.2-1.5-0.7-2.2-1.2l-2.2,3h-0.8l2.3-3.2c0,0,0.2,0,0.3,0c0-0.2-0.2-0.3-0.3-0.3l-3.2,1.8c0.3,0.7,0,1.3-0.5,1.7
			c-0.7,0.5-1.5,0.3-2-0.3c-0.5-0.7-0.2-1.7,0.5-2.2c0.5-0.3,1.2,0,1.7,0.3l3.2-2l-0.2-0.3c-0.2,0-0.3,0.2-0.3,0.3l-3.7,0.5l0.2-0.7
			l3.7-0.5c-0.2-0.7-0.3-1.2-0.3-1.7s0.2-0.8,0.2-1.3l-3.5-0.3l-0.2-0.7l3.7,0.3c0,0.2,0,0.3,0.2,0.3c0-0.2,0.2-0.3,0.2-0.3
			l-3.5-2.2c-0.5,0.5-1.2,0.5-1.7,0.2c-0.7-0.3-1-1.2-0.5-1.8c0.3-0.7,1.2-1,1.8-0.5c0.7,0.3,0.8,1,0.7,1.7l3.7,1.8c0,0,0-0.2,0-0.3
			l-2.5-2.8l0.7-0.3l2.2,3c0.7-0.7,1.5-1.2,2.3-1.5L770,317l0.5-0.5l1.5,3.5c0,0-0.2,0-0.2,0.2c0.2-0.2,0.2-0.2,0.3-0.2l0.2-4
			c-0.7-0.2-1-0.7-1-1.3c0-0.8,0.5-1.5,1.3-1.5s1.3,0.7,1.3,1.5c0,0.7-0.3,1.2-1,1.3v4c0.2,0,0.3,0.2,0.5,0.2c0-0.2-0.2-0.2-0.2-0.2
			l1.3-3.5l0.5,0.5l-1.2,3.2c0.7,0.3,1.5,0.7,2,1.2l2-2.8l0.7,0.2l-2,3c-0.2,0-0.3,0-0.3,0c0,0.2,0,0.3,0.3,0.5l3.3-2.2
			c-0.2-0.7,0-1.3,0.5-1.8c0.7-0.3,1.7-0.2,2,0.5c0.5,0.7,0.3,1.7-0.3,2c-0.7,0.3-1.3,0.3-1.8-0.2l-3.3,2.3c0,0,0,0.2,0.2,0.2
			c0,0,0,0,0.2-0.2l3.7-0.5l-0.2,0.7l-3.7,0.7c0.2,0.3,0.2,0.7,0.2,1.3c0,0.3,0,1-0.2,1.3l3.7,0.3l0.3,0.8l-3.8-0.5
			c0,0,0-0.2-0.2-0.3c-0.2,0.2-0.2,0.3-0.2,0.3l3.2,2C780.6,328.5,781.4,328.3,782.1,328.7z"/>
		<path class="st6" d="M773.5,206.1l1.7-0.8l0.3-2.5l-2,1.5V206.1z M773.5,210l2.2,1.8l-0.3-2.8l-1.8-0.8v1.8H773.5z M770.7,211.7
			l2-1.7l-0.2-1.8L771,209L770.7,211.7z M770.5,202.6l0.5,2.8l1.5,0.7l0.2-1.8L770.5,202.6z M779.4,203.1c0.7,1.2,1,2.2,0.7,2.2
			c-0.3,0.3-0.8-0.3-1.5-1.3l-2.2,1.7c-0.3,0-0.3,0-0.5,0c0.2,0.2,0.5,0.2,0.7,0c0,0,0,0,0-0.3l2.3,1.3l-0.3,0.5l-2.8-1.2l-1.5,1.2
			l1.5,1.2l3-1.2l0.2,0.3l-2,1.3c-0.2-0.2-0.3-0.2-0.3-0.2s-0.2,0-0.3,0l2.2,1.3c0.7-1,1.2-1.7,1.3-1.7c0.3,0.3,0,1.3-0.5,2.3
			c-0.7,1-1.3,1.8-1.7,1.7c0-0.2,0-1,0.7-2L776,209c0,0.3,0,0.5,0.2,0.5h0.2v2.5l-0.3,0.2l-0.3,0.2l-2.2-1.2V211
			c0-0.2,0-0.3-0.2-0.3v2.5c1,0,2,0.2,2,0.5s-1,0.5-2.2,0.5c-1.3,0-2.2-0.2-2.2-0.5s0.8-0.5,1.8-0.5v-2.5c-0.2,0-0.3,0.2-0.3,0.3
			c0,0,0,0.2,0.2,0.2l-2.2,1.2l-0.2-0.2H770v-2.5c0,0,0,0,0.2,0c0.2-0.2,0.2-0.3,0.2-0.5l-2.2,1.5c0.7,0.8,1,1.7,0.7,1.8
			c-0.3,0.2-1-0.7-1.7-1.7c-0.7-0.8-1-1.8-0.8-2.2c0.3,0,1,0.7,1.5,1.5l2.2-1.5c0,0-0.2,0-0.3,0.2c-0.2,0-0.2,0-0.3,0.2l-2-1.2
			l0.2-0.5l3,1l1.5-1.2l-1.5-1l-3,1.2v-0.5l1.8-1.2c0,0,0.2,0.2,0.3,0.2c0.2,0.2,0.5,0,0.7,0c-0.2,0-0.3,0-0.5-0.2l-2.3-1.3
			c-0.5,0.8-1.2,1.5-1.5,1.3c-0.2,0,0.2-1.2,0.8-2.2c0.5-1,1.2-1.8,1.5-1.7c0.2,0.2,0,1-0.7,2l2.3,1.3c0.3,0.2,0.5,0.2,0.5,0.5
			c0-0.3,0-0.7-0.3-0.7c-0.2-0.2-0.2-0.2-0.3-0.2l0.2-2.3l0.3-0.2l0.2-0.2l2.2,1c-0.2,0.3-0.2,0.3-0.2,0.3c0,0.3,0.2,0.5,0.3,0.5
			c0,0,0-0.2,0-0.3V201c-1-0.2-1.8-0.3-1.8-0.7c0-0.3,0.8-0.5,2.2-0.5c1.2,0,2.2,0.2,2.2,0.5s-1,0.5-2,0.7v2.7
			c0,0.2-0.2,0.3-0.2,0.3c0.3,0,0.5-0.2,0.5-0.5c0,0-0.2,0-0.2-0.3l2.2-1l0.2,0.2h0.2l0.2,2.3c-0.2,0-0.2,0-0.3,0
			c-0.2,0.3-0.3,0.5-0.2,0.7c0,0,0.2-0.2,0.3-0.3l2.3-1.3c-0.7-1-0.8-1.8-0.7-2C777.9,201.5,778.6,202.1,779.4,203.1z"/>
	</g>
	<g>
		<path class="st5" d="M827.2,270.3l3.8,4c-8,17-16.2,27.1-26.2,27.1c-9.2,0-11.5-8.2-4.8-22.6c4.5-9.9,6.9-13.4,10.2-19.4
			c1.5-2.5,1.3-5-0.8-6.9c-4.3-3.5-6.9-10.7-3-17c6-10,18.1-1.5,9.2,7.4c-3.7,3.7,0,5,2.3,6c4.7,2.2,6.7,6.9,4.7,10.9l-8.7,19.1
			c-3.7,7.9-4.8,11.7-2,11.7C816.2,290.5,821.5,282.7,827.2,270.3z M810.1,239.6l3.8,4l-15.5,32.6l-4-4L810.1,239.6z"/>
		<path class="st6" d="M818.7,219.3c-0.2,0-0.3,0-0.3,0l2.3,1.3l-0.2,0.2l-2.5-1.3c0,0.3,0.2,0.3,0.2,0.3c0.2,0.2,0.2,0.2,0.2,0.2
			l0.3,0.8h-0.5l-0.5-1.3l-1-0.5v1.2l1,1l-0.2,0.3l-0.8-0.7c0-0.2,0-0.3,0-0.5l-0.2,3h-0.3v-3c-0.2,0.2-0.2,0.3-0.2,0.5l-0.7,0.7
			l-0.2-0.3l0.8-1v-1l-0.8,0.3l-0.5,1.5l-0.3-0.2V220c0.2,0,0.2,0,0.3,0c0,0,0.2-0.2,0.2-0.3l-2.5,1.5l-0.2-0.3l2.3-1.5
			c-0.2,0-0.2,0-0.3,0c0,0,0,0.2-0.2,0.2l-0.8-0.2V219h1.7l0.8-0.5l-0.8-0.5l-1.7,0.2v-0.3l0.8-0.3c0.2,0,0.2,0,0.3,0.2
			c0,0,0.2,0,0.3,0L812,216l0.2-0.2l2.7,1.5c0-0.2,0-0.3-0.2-0.3c0-0.2-0.3-0.2-0.3-0.2l-0.2-0.8h0.3l0.7,1.3l0.8,0.5v-1l-0.8-1.3
			l0.2-0.2l0.7,0.7v0.2c0,0.2,0,0.3,0.2,0.3v-3.2h0.3l0.2,3.2c0,0,0.2-0.2,0.2-0.3c0-0.2-0.2-0.2-0.2-0.2l0.8-0.7l0.2,0.2l-1,1.3
			v0.8l0.8-0.3l0.5-1.5l0.5,0.2l-0.2,0.8c-0.2,0-0.2,0-0.3,0c0,0.2-0.2,0.3-0.2,0.3l2.7-1.7l0.2,0.5l-2.5,1.5c0,0.2,0.2,0,0.3,0
			l0.2-0.2l0.8,0.3v0.3l-1.5-0.2l-0.8,0.7l0.8,0.5l1.5-0.3l0.2,0.3L818.7,219.3z"/>
		<path class="st6" d="M806.1,314.3l1.7-0.8l0.3-2.5l-2,1.5V314.3z M806.1,318.1l2.2,1.8l-0.3-2.8l-1.8-0.8v1.8H806.1z M803.3,319.8
			l2-1.7l-0.2-1.8l-1.5,0.8L803.3,319.8z M803.1,310.8l0.5,2.8l1.5,0.7l0.2-1.8L803.1,310.8z M812,311.3c0.7,1.2,1,2.2,0.7,2.2
			c-0.3,0.3-0.8-0.3-1.5-1.3l-2.2,1.7c-0.3,0-0.3,0-0.5,0c0.2,0.2,0.5,0.2,0.7,0c0,0,0,0,0-0.3l2.3,1.3l-0.3,0.5l-2.8-1.2l-1.5,1.2
			l1.5,1.2l3-1.2l0.2,0.3l-2,1.3c-0.2-0.2-0.3-0.2-0.3-0.2s-0.2,0-0.3,0l2.2,1.3c0.7-1,1.2-1.7,1.3-1.7c0.3,0.3,0,1.3-0.5,2.3
			c-0.7,1-1.3,1.8-1.7,1.7c0-0.2,0-1,0.7-2l-2.2-1.3c0,0.3,0,0.5,0.2,0.5h0.2v2.5l-0.3,0.2l-0.3,0.2l-2.2-1.2v-0.2
			c0-0.2,0-0.3-0.2-0.3v2.5c1,0,2,0.2,2,0.5s-1,0.5-2.2,0.5c-1.3,0-2.2-0.2-2.2-0.5s0.8-0.5,1.8-0.5v-2.5c-0.2,0-0.3,0.2-0.3,0.3
			c0,0,0,0.2,0.2,0.2l-2.2,1.2l-0.2-0.2h-0.3v-2.5c0,0,0,0,0.2,0c0.2-0.2,0.2-0.3,0.2-0.5l-2.2,1.5c0.7,0.8,1,1.7,0.7,1.8
			s-1-0.7-1.7-1.7c-0.7-0.8-1-1.8-0.8-2.2c0.3,0,1,0.7,1.5,1.5l2.2-1.5c0,0-0.2,0-0.3,0.2c-0.2,0-0.2,0-0.3,0.2l-2-1.2l0.2-0.5l3,1
			l1.5-1.2l-1.5-1l-3,1.2V315l1.8-1.2c0,0,0.2,0.2,0.3,0.2c0.2,0.2,0.5,0,0.7,0c-0.2,0-0.3,0-0.5-0.2l-2.3-1.3
			c-0.5,0.8-1.2,1.5-1.5,1.3c-0.2,0,0.2-1.2,0.8-2.2c0.5-1,1.2-1.8,1.5-1.7c0.2,0.2,0,1-0.7,2l2.3,1.3c0.3,0.2,0.5,0.2,0.5,0.5
			c0-0.3,0-0.7-0.3-0.7c-0.2-0.2-0.2-0.2-0.3-0.2l0.2-2.3l0.3-0.2l0.2-0.2l2.2,1c-0.2,0.3-0.2,0.3-0.2,0.3c0,0.3,0.2,0.5,0.3,0.5
			c0,0,0-0.2,0-0.3v-2.7c-1-0.2-1.8-0.3-1.8-0.7c0-0.3,0.8-0.5,2.2-0.5c1.2,0,2.2,0.2,2.2,0.5s-1,0.5-2,0.7v2.7
			c0,0.2-0.2,0.3-0.2,0.3c0.3,0,0.5-0.2,0.5-0.5c0,0-0.2,0-0.2-0.3l2.2-1l0.2,0.2h0.2l0.2,2.3c-0.2,0-0.2,0-0.3,0
			c-0.2,0.3-0.3,0.5-0.2,0.7c0,0,0.2-0.2,0.3-0.3l2.3-1.3c-0.7-1-0.8-1.8-0.7-2C810.5,309.6,811.1,310.3,812,311.3z"/>
	</g>
	<g>
		<path class="st5" d="M837.7,290.5c4.3,0,15.9-7.9,21.6-20.2l3.8,4c-8,17-22.4,27.1-32.6,27.1c-9,0-14.2-8.2-7.5-22.6l30.6-65
			L869,210l-32.1,68.9C833.2,286.7,834.7,290.5,837.7,290.5z M865.8,241.9l-2.3,5.7h-33.1l2.7-5.7H865.8z"/>
		<path class="st6" d="M842.4,313.4l1.7-0.8l0.3-2.5l-2,1.5V313.4z M842.4,317.3l2.2,1.8l-0.3-2.8l-1.8-0.8v1.8H842.4z M839.6,319
			l2-1.7l-0.2-1.8l-1.5,0.8L839.6,319z M839.4,309.9l0.5,2.8l1.5,0.7l0.2-1.8L839.4,309.9z M848.3,310.4c0.7,1.2,1,2.2,0.7,2.2
			c-0.3,0.3-0.8-0.3-1.5-1.3l-2.2,1.7c-0.3,0-0.3,0-0.5,0c0.2,0.2,0.5,0.2,0.7,0c0,0,0,0,0-0.3l2.3,1.3l-0.3,0.5l-2.8-1.2l-1.5,1.2
			l1.5,1.2l3-1.2l0.2,0.3l-2,1.3c-0.2-0.2-0.3-0.2-0.3-0.2s-0.2,0-0.3,0l2.2,1.3c0.7-1,1.2-1.7,1.3-1.7c0.3,0.3,0,1.3-0.5,2.3
			c-0.7,1-1.3,1.8-1.7,1.7c0-0.2,0-1,0.7-2l-2.2-1.3c0,0.3,0,0.5,0.2,0.5h0.2v2.5l-0.3,0.2l-0.3,0.2l-2.2-1.2v-0.2
			c0-0.2,0-0.3-0.2-0.3v2.5c1,0,2,0.2,2,0.5s-1,0.5-2.2,0.5c-1.3,0-2.2-0.2-2.2-0.5s0.8-0.5,1.8-0.5V318c-0.2,0-0.3,0.2-0.3,0.3
			c0,0,0,0.2,0.2,0.2l-2.2,1.2l-0.2-0.2h-0.3V317c0,0,0,0,0.2,0c0.2-0.2,0.2-0.3,0.2-0.5l-2.2,1.5c0.7,0.8,1,1.7,0.7,1.8
			c-0.3,0.2-1-0.7-1.7-1.7c-0.7-0.8-1-1.8-0.8-2.2c0.3,0,1,0.7,1.5,1.5l2.2-1.5c0,0-0.2,0-0.3,0.2c-0.2,0-0.2,0-0.3,0.2l-2-1.2
			l0.2-0.5l3,1l1.5-1.2l-1.5-1l-3,1.2v-0.5l1.8-1.2c0,0,0.2,0.2,0.3,0.2c0.2,0.2,0.5,0,0.7,0c-0.2,0-0.3,0-0.5-0.2l-2.3-1.3
			c-0.5,0.8-1.2,1.5-1.5,1.3c-0.2,0,0.2-1.2,0.8-2.2c0.5-1,1.2-1.8,1.5-1.7c0.2,0.2,0,1-0.7,2l2.3,1.3c0.3,0.2,0.5,0.2,0.5,0.5
			c0-0.3,0-0.7-0.3-0.7c-0.2-0.2-0.2-0.2-0.3-0.2l0.2-2.3l0.3-0.2l0.2-0.2l2.2,1c-0.2,0.3-0.2,0.3-0.2,0.3c0,0.3,0.2,0.5,0.3,0.5
			c0,0,0-0.2,0-0.3V308c-1-0.2-1.8-0.3-1.8-0.7c0-0.3,0.8-0.5,2.2-0.5c1.2,0,2.2,0.2,2.2,0.5s-1,0.5-2,0.7v2.7
			c0,0.2-0.2,0.3-0.2,0.3c0.3,0,0.5-0.2,0.5-0.5c0,0-0.2,0-0.2-0.3l2.2-1l0.2,0.2h0.2l0.2,2.3c-0.2,0-0.2,0-0.3,0
			c-0.2,0.3-0.3,0.5-0.2,0.7c0,0,0.2-0.2,0.3-0.3l2.3-1.3c-0.7-1-0.8-1.8-0.7-2C846.8,308.8,847.4,309.4,848.3,310.4z"/>
		<path class="st6" d="M846.9,202.3c0.2,0,0.2-0.2,0.2-0.2h-0.2C846.9,202.1,846.9,202.1,846.9,202.3z M844.6,204
			c0.7-0.3,1.5-0.7,2.2-1.3l-0.5-0.7l-2-1l-0.2,2.2L844.6,204z M843.9,204L843.9,204h0.2H843.9z M842.9,204h0.2H842.9z M840.4,202.8
			c0.5,0.5,1.5,0.8,2.2,1.2l0.3-0.8l-0.2-2l-1.8,0.8L840.4,202.8z M840.2,202.3H840c0.2,0.2,0.2,0.2,0.2,0.2V202.3z M839.6,201.6
			L839.6,201.6h0.2C839.6,201.6,839.6,201.6,839.6,201.6z M839.1,199.6c0,0.5,0,1,0.2,1.7l1-0.3l1.7-1.2l-1.7-1.3h-1
			C839.1,198.8,839.1,199.1,839.1,199.6z M839.9,198.1l-0.3-0.3c-0.3,0.2-0.3,0.2-0.3,0.3C839.6,198.3,839.6,198.3,839.9,198.1z
			 M840.2,196.8c-0.3,0-0.3,0.2-0.3,0.2l0.5,0.3C840.4,197.1,840.2,196.8,840.2,196.8z M842.4,195.1c-0.8,0.2-1.5,0.8-2.2,1.5
			l0.7,0.8l1.8,0.8l0.2-2L842.4,195.1z M843.1,195.8v-0.7c-0.2,0-0.2,0-0.3,0C842.7,195.3,842.9,195.6,843.1,195.8z M844.4,195.1
			c-0.2,0-0.3,0-0.5,0v0.7C844.1,195.6,844.4,195.4,844.4,195.1z M846.6,196.4c-0.5-0.5-1.2-1.2-2-1.2l-0.5,1l0.2,2l1.8-1
			L846.6,196.4z M846.6,197.3l0.5-0.3c-0.2-0.2-0.2-0.2-0.3-0.3C846.6,196.8,846.6,196.9,846.6,197.3z M847.6,197.9v-0.3l-0.5,0.3
			C847.3,197.9,847.6,197.9,847.6,197.9z M847.9,199.6c0-0.7,0-1-0.2-1.3l-1.2,0.2l-1.7,1.2l1.8,1.3h1
			C847.9,200.6,847.9,200,847.9,199.6z M847.4,201.3l0.2,0.2c0-0.2,0-0.2,0-0.2H847.4z M852.9,203.3c0.5,0.3,0.8,1.3,0.5,2
			s-1.3,0.8-2,0.5c-0.5-0.2-0.7-1-0.7-1.5l-3.2-1.8c-0.2,0-0.3,0.2-0.3,0.2c0.3,0.3,0.3,0.3,0.5,0.3l2.3,2.8l-0.8,0.2l-2.3-3
			c-0.5,0.7-1.3,1.2-2.3,1.3l1.5,3.5l-0.5,0.5l-1.5-3.3c0.2-0.2,0.2-0.2,0.2-0.5c0-0.2,0-0.2,0-0.2c-0.2,0-0.2,0-0.3,0v4
			c0.7,0,1,0.7,1,1.3c0,0.8-0.5,1.5-1.3,1.5s-1.3-0.7-1.3-1.5c0-0.7,0.3-1.2,1-1.3l-0.2-4c-0.2,0-0.2,0-0.3,0c0,0,0,0,0,0.2
			c0,0.3,0,0.3,0.2,0.5l-1.5,3.3l-0.5-0.5l1.5-3.5c-0.8-0.2-1.5-0.7-2.2-1.2l-2.2,3h-0.8l2.3-3.2c0,0,0.2,0,0.3,0
			c0-0.2-0.2-0.3-0.3-0.3l-3.2,1.8c0.3,0.7,0,1.3-0.5,1.7c-0.7,0.5-1.5,0.3-2-0.3s-0.2-1.7,0.5-2.2c0.5-0.3,1.2,0,1.7,0.3l3.2-2
			l-0.2-0.3c-0.2,0-0.3,0.2-0.3,0.3l-3.7,0.5l0.2-0.7l3.7-0.5c-0.2-0.7-0.3-1.2-0.3-1.7s0.2-0.8,0.2-1.3l-3.5-0.3l-0.2-0.7l3.7,0.3
			c0,0.2,0,0.3,0.2,0.3c0-0.2,0.2-0.3,0.2-0.3l-3.5-2.2c-0.5,0.5-1.2,0.5-1.7,0.2c-0.7-0.3-1-1.2-0.5-1.8c0.3-0.7,1.2-1,1.8-0.5
			c0.7,0.3,0.8,1,0.7,1.7l3.7,1.8c0,0,0-0.2,0-0.3l-2.5-2.8l0.7-0.3l2.2,3c0.7-0.7,1.5-1.2,2.3-1.5l-1.3-3.2l0.5-0.5l1.5,3.5
			c0,0-0.2,0-0.2,0.2c0.2-0.2,0.2-0.2,0.3-0.2l0.2-4c-0.7-0.2-1-0.7-1-1.3c0-0.8,0.5-1.5,1.3-1.5s1.3,0.7,1.3,1.5
			c0,0.7-0.3,1.2-1,1.3v4c0.2,0,0.3,0.2,0.5,0.2c0-0.2-0.2-0.2-0.2-0.2l1.3-3.5l0.5,0.5l-1.2,3.2c0.7,0.3,1.5,0.7,2,1.2l2-2.8
			l0.7,0.2l-2,3c-0.2,0-0.3,0-0.3,0c0,0.2,0,0.3,0.3,0.5l3.3-2.2c-0.2-0.7,0-1.3,0.5-1.8c0.7-0.3,1.7-0.2,2,0.5
			c0.5,0.7,0.3,1.7-0.3,2c-0.7,0.3-1.3,0.3-1.8-0.2l-3.3,2.3c0,0,0,0.2,0.2,0.2c0,0,0,0,0.2-0.2l3.7-0.5l-0.2,0.7l-3.7,0.7
			c0.2,0.3,0.2,0.7,0.2,1.3c0,0.3,0,1-0.2,1.3l3.7,0.3l0.3,0.8l-3.8-0.5c0,0,0-0.2-0.2-0.3c-0.2,0.2-0.2,0.3-0.2,0.3l3.2,2
			C851.4,203.1,852.3,203,852.9,203.3z"/>
	</g>
	<g>
		<path class="st5" d="M590.2,419.8c8.2-0.3,10.5,7.2,6.4,14.2c-2.3,3.8-7.2,7-12.9,7.7c-5.7,0.8-12.2-1.3-16.9-6
			c-8.5-8.4-9.7-21.6-4.5-31.8c8.9-17.4,27.4-21.9,45.8-15.7c14.4,4.8,67.9,38.8,69,0.8l4.8-0.2c0.7,22.4-19.9,30.6-39.1,27.1
			c-21.2-3.8-38.8-22.9-61.7-18.2c-9.7,2-16.4,11.4-15.9,21.1c0.3,8.9,8.2,13.4,15.5,11.4C585.7,429,589.7,424.9,590.2,419.8z
			 M648.9,391.3c-9.5,0.3-17.7,23.6-20.6,29.9c-8.2,17.6-15.4,35.6-24.4,52.7c-7.5,14.2-16.2,28.4-30.1,37.4
			c-11.4,7.2-33.3,12.2-41.6-3c-11.7-21.4,8.9-56.2,34.8-50.3c5.9,1.3,9.2,6.2,9.7,10.5c0.7,6-2.2,5.3-6.4,3
			c-8.4-4.7-21.1-1.7-27.9,8.9c-3,4.7-6,10-6.5,16.4c-0.5,6.2,2.3,12.9,8.4,14.4c25.6,6.9,47.1-45.1,55.8-61.8
			c7.2-13.7,14-28.1,22.6-41c6-9.4,14-21.4,24.7-22.6L648.9,391.3z"/>
		<path class="st6" d="M544.6,431.3l1.7-0.8l0.3-2.5l-2,1.5V431.3z M544.6,435.1l2.2,1.8l-0.3-2.8l-1.8-0.8v1.8H544.6z M541.7,436.8
			l2-1.7l-0.2-1.8l-1.5,0.8L541.7,436.8z M541.5,427.8l0.5,2.8l1.5,0.7l0.2-1.8L541.5,427.8z M550.4,428.3c0.7,1.2,1,2.2,0.7,2.2
			c-0.3,0.3-0.8-0.3-1.5-1.3l-2.2,1.7c-0.3,0-0.3,0-0.5,0c0.2,0.2,0.5,0.2,0.7,0c0,0,0,0,0-0.3l2.3,1.3l-0.3,0.5l-2.8-1.2l-1.5,1.2
			l1.5,1.2l3-1.2l0.2,0.3l-2,1.3c-0.2-0.2-0.3-0.2-0.3-0.2s-0.2,0-0.3,0l2.2,1.3c0.7-1,1.2-1.7,1.3-1.7c0.3,0.3,0,1.3-0.5,2.3
			c-0.7,1-1.3,1.8-1.7,1.7c0-0.2,0-1,0.7-2l-2.2-1.3c0,0.3,0,0.5,0.2,0.5h0.2v2.5l-0.3,0.2l-0.3,0.2l-2.2-1.2v-0.2
			c0-0.2,0-0.3-0.2-0.3v2.5c1,0,2,0.2,2,0.5s-1,0.5-2.2,0.5c-1.3,0-2.2-0.2-2.2-0.5s0.8-0.5,1.8-0.5v-2.5c-0.2,0-0.3,0.2-0.3,0.3
			c0,0,0,0.2,0.2,0.2l-2.2,1.2l-0.2-0.2H541v-2.5c0,0,0,0,0.2,0c0.2-0.2,0.2-0.3,0.2-0.5l-2.2,1.5c0.7,0.8,1,1.7,0.7,1.8
			c-0.3,0.2-1-0.7-1.7-1.7c-0.7-0.8-1-1.8-0.8-2.2c0.3,0,1,0.7,1.5,1.5l2.2-1.5c0,0-0.2,0-0.3,0.2c-0.2,0-0.2,0-0.3,0.2l-2-1.2
			l0.2-0.5l3,1l1.5-1.2l-1.5-1l-3,1.2V432l1.8-1.2c0,0,0.2,0.2,0.3,0.2c0.2,0.2,0.5,0,0.7,0c-0.2,0-0.3,0-0.5-0.2l-2.3-1.3
			c-0.5,0.8-1.2,1.5-1.5,1.3c-0.2,0,0.2-1.2,0.8-2.2c0.5-1,1.2-1.8,1.5-1.7c0.2,0.2,0,1-0.7,2l2.3,1.3c0.3,0.2,0.5,0.2,0.5,0.5
			c0-0.3,0-0.7-0.3-0.7c-0.2-0.2-0.2-0.2-0.3-0.2l0.2-2.3l0.3-0.2l0.2-0.2l2.2,1c-0.2,0.3-0.2,0.3-0.2,0.3c0,0.3,0.2,0.5,0.3,0.5
			c0,0,0-0.2,0-0.3v-2.7c-1-0.2-1.8-0.3-1.8-0.7c0-0.3,0.8-0.5,2.2-0.5c1.2,0,2.2,0.2,2.2,0.5s-1,0.5-2,0.7v2.7
			c0,0.2-0.2,0.3-0.2,0.3c0.3,0,0.5-0.2,0.5-0.5c0,0-0.2,0-0.2-0.3l2.2-1l0.2,0.2h0.2l0.2,2.3c-0.2,0-0.2,0-0.3,0
			c-0.2,0.3-0.3,0.5-0.2,0.7c0,0,0.2-0.2,0.3-0.3l2.3-1.3c-0.7-1-0.8-1.8-0.7-2C548.9,426.6,549.6,427.3,550.4,428.3z"/>
		<path class="st6" d="M603.6,534.6c0.2,0,0.2-0.2,0.2-0.2h-0.2C603.6,534.4,603.6,534.4,603.6,534.6z M601.2,536.3
			c0.7-0.3,1.5-0.7,2.2-1.3l-0.5-0.7l-2-1l-0.2,2.2L601.2,536.3z M600.5,536.3L600.5,536.3h0.2H600.5z M599.5,536.3h0.2H599.5z
			 M597,535.1c0.5,0.5,1.5,0.8,2.2,1.2l0.3-0.8l-0.2-2l-1.8,0.8L597,535.1z M596.9,534.6h-0.2c0.2,0.2,0.2,0.2,0.2,0.2V534.6z
			 M596.2,533.9L596.2,533.9h0.2C596.2,533.9,596.2,533.9,596.2,533.9z M595.7,531.9c0,0.5,0,1,0.2,1.7l1-0.3l1.7-1.2l-1.7-1.3h-1
			C595.7,531.1,595.7,531.4,595.7,531.9z M596.5,530.4l-0.3-0.3c-0.3,0.2-0.3,0.2-0.3,0.3C596.2,530.6,596.2,530.6,596.5,530.4z
			 M596.9,529.1c-0.3,0-0.3,0.2-0.3,0.2l0.5,0.3C597,529.4,596.9,529.1,596.9,529.1z M599,527.4c-0.8,0.2-1.5,0.8-2.2,1.5l0.7,0.8
			l1.8,0.8l0.2-2L599,527.4z M599.7,528.1v-0.7c-0.2,0-0.2,0-0.3,0C599.4,527.6,599.5,527.9,599.7,528.1z M601,527.4
			c-0.2,0-0.3,0-0.5,0v0.7C600.7,527.9,601,527.7,601,527.4z M603.2,528.7c-0.5-0.5-1.2-1.2-2-1.2l-0.5,1l0.2,2l1.8-1L603.2,528.7z
			 M603.2,529.6l0.5-0.3c-0.2-0.2-0.2-0.2-0.3-0.3C603.2,529.1,603.2,529.2,603.2,529.6z M604.2,530.2v-0.3l-0.5,0.3
			C603.9,530.2,604.2,530.2,604.2,530.2z M604.6,531.9c0-0.7,0-1-0.2-1.3l-1.2,0.2l-1.7,1.2l1.8,1.3h1
			C604.6,532.9,604.6,532.3,604.6,531.9z M604.1,533.6l0.2,0.2c0-0.2,0-0.2,0-0.2H604.1z M609.6,535.6c0.5,0.3,0.8,1.3,0.5,2
			s-1.3,0.8-2,0.5c-0.5-0.2-0.7-1-0.7-1.5l-3.2-1.8c-0.2,0-0.3,0.2-0.3,0.2c0.3,0.3,0.3,0.3,0.5,0.3l2.3,2.8l-0.8,0.2l-2.3-3
			c-0.5,0.7-1.3,1.2-2.3,1.3l1.5,3.5l-0.5,0.5l-1.5-3.3c0.2-0.2,0.2-0.2,0.2-0.5c0-0.2,0-0.2,0-0.2c-0.2,0-0.2,0-0.3,0v4
			c0.7,0,1,0.7,1,1.3c0,0.8-0.5,1.5-1.3,1.5s-1.3-0.7-1.3-1.5c0-0.7,0.3-1.2,1-1.3l-0.2-4c-0.2,0-0.2,0-0.3,0c0,0,0,0,0,0.2
			c0,0.3,0,0.3,0.2,0.5l-1.5,3.3l-0.5-0.5l1.5-3.5c-0.8-0.2-1.5-0.7-2.2-1.2l-2.2,3h-0.8l2.3-3.2c0,0,0.2,0,0.3,0
			c0-0.2-0.2-0.3-0.3-0.3l-3.2,1.8c0.3,0.7,0,1.3-0.5,1.7c-0.7,0.5-1.5,0.3-2-0.3c-0.5-0.7-0.2-1.7,0.5-2.2c0.5-0.3,1.2,0,1.7,0.3
			l3.2-2l-0.2-0.3c-0.2,0-0.3,0.2-0.3,0.3l-3.7,0.5l0.2-0.7l3.7-0.5c-0.2-0.7-0.3-1.2-0.3-1.7s0.2-0.8,0.2-1.3l-3.5-0.3l-0.2-0.7
			l3.7,0.3c0,0.2,0,0.3,0.2,0.3c0-0.2,0.2-0.3,0.2-0.3l-3.5-2.2c-0.5,0.5-1.2,0.5-1.7,0.2c-0.7-0.3-1-1.2-0.5-1.8
			c0.3-0.7,1.2-1,1.8-0.5c0.7,0.3,0.8,1,0.7,1.7l3.7,1.8c0,0,0-0.2,0-0.3l-2.5-2.8l0.7-0.3l2.2,3c0.7-0.7,1.5-1.2,2.3-1.5l-1.3-3.2
			l0.5-0.5l1.5,3.5c0,0-0.2,0-0.2,0.2c0.2-0.2,0.2-0.2,0.3-0.2l0.2-4c-0.7-0.2-1-0.7-1-1.3c0-0.8,0.5-1.5,1.3-1.5s1.3,0.7,1.3,1.5
			c0,0.7-0.3,1.2-1,1.3v4c0.2,0,0.3,0.2,0.5,0.2c0-0.2-0.2-0.2-0.2-0.2l1.3-3.5l0.5,0.5l-1.2,3.2c0.7,0.3,1.5,0.7,2,1.2l2-2.8
			l0.7,0.2l-2,3c-0.2,0-0.3,0-0.3,0c0,0.2,0,0.3,0.3,0.5l3.3-2.2c-0.2-0.7,0-1.3,0.5-1.8c0.7-0.3,1.7-0.2,2,0.5
			c0.5,0.7,0.3,1.7-0.3,2c-0.7,0.3-1.3,0.3-1.8-0.2l-3.3,2.3c0,0,0,0.2,0.2,0.2c0,0,0,0,0.2-0.2l3.7-0.5l-0.2,0.7l-3.7,0.7
			c0.2,0.3,0.2,0.7,0.2,1.3c0,0.3,0,1-0.2,1.3l3.7,0.3l0.3,0.8l-3.8-0.5c0,0,0-0.2-0.2-0.3c-0.2,0.2-0.2,0.3-0.2,0.3l3.2,2
			C608.1,535.4,608.9,535.3,609.6,535.6z"/>
		<path class="st6" d="M543.7,532.6c-0.2,0-0.3,0-0.3,0l2.3,1.3l-0.2,0.2l-2.5-1.3c0,0.3,0.2,0.3,0.2,0.3c0.2,0.2,0.2,0.2,0.2,0.2
			l0.3,0.8h-0.5l-0.5-1.3l-1-0.5v1.2l1,1l-0.2,0.3l-0.8-0.7c0-0.2,0-0.3,0-0.5l-0.2,3h-0.3v-3c-0.2,0.2-0.2,0.3-0.2,0.5l-0.7,0.7
			l-0.2-0.3l0.8-1v-1l-0.8,0.3l-0.5,1.5l-0.3-0.2v-0.8c0.2,0,0.2,0,0.3,0c0,0,0.2-0.2,0.2-0.3l-2.5,1.5l-0.2-0.3l2.3-1.5
			c-0.2,0-0.2,0-0.3,0c0,0,0,0.2-0.2,0.2l-0.8-0.2v-0.3h1.7l0.8-0.5l-0.8-0.5l-1.7,0.2v-0.3l0.8-0.3c0.2,0,0.2,0,0.3,0.2
			c0,0,0.2,0,0.3,0l-2.7-1.7l0.2-0.2l2.7,1.5c0-0.2,0-0.3-0.2-0.3c0-0.2-0.3-0.2-0.3-0.2l-0.2-0.8h0.3l0.7,1.3l0.8,0.5v-1L540,529
			l0.2-0.2l0.7,0.7v0.2c0,0.2,0,0.3,0.2,0.3v-3.2h0.3l0.2,3.2c0,0,0.2-0.2,0.2-0.3s-0.2-0.2-0.2-0.2l0.8-0.7l0.2,0.2l-1,1.3v0.8
			l0.8-0.3l0.5-1.5l0.5,0.2l-0.2,0.8c-0.2,0-0.2,0-0.3,0c0,0.2-0.2,0.3-0.2,0.3l2.7-1.7l0.2,0.5l-2.5,1.5c0,0.2,0.2,0,0.3,0l0.2-0.2
			l0.8,0.3v0.3l-1.5-0.2l-0.8,0.7l0.8,0.5l1.5-0.3l0.2,0.3L543.7,532.6z"/>
	</g>
	<g>
		<path class="st5" d="M666.2,456.5c0,3.7-2.5,6.7-5.7,6.7c-3,0-5.5-3-5.5-6.7c0-3.8,2.5-6.9,5.5-6.9
			C663.7,449.7,666.2,452.7,666.2,456.5z M659.4,462.9l6.2,2.3c-0.7,2.2-1.7,4.5-2.7,6.9c-8,17-24.6,34.8-38.3,28.6
			c-7.2-3.3-9.2-14.5-2.3-28.2c13-26.2,29.3-35.9,39.4-31.4c2.2,1,4.7,3.7,4.7,6.5c-6.9-5.5-18.4-2-29.6,21.9
			c-4.8,10.2-5,18.2-0.3,20.7c4.5,2.7,14.5-8.4,20.1-20.1C657.5,467.6,658.5,465.2,659.4,462.9z M660.1,462.2c2.2-5.2,1.5-9-0.5-9
			c-2.7,0-3.5,7.5,2.2,8.4c5.7,0.2,15.2-1.8,19.1-5.2l2.2,4.5c-7.5,4.8-15.5,6.7-22.2,6.2c-12.2-2-10.7-19.6-0.2-19.6
			c7.2,0,8.9,8.5,4.7,18.1L660.1,462.2z"/>
		<path class="st6" d="M648.7,416.7l1.7-0.8l0.3-2.5l-2,1.5V416.7z M648.7,420.6l2.2,1.8l-0.3-2.8l-1.8-0.8v1.8H648.7z M645.8,422.3
			l2-1.7l-0.2-1.8l-1.5,0.8L645.8,422.3z M645.7,413.2l0.5,2.8l1.5,0.7l0.2-1.8L645.7,413.2z M654.5,413.7c0.7,1.2,1,2.2,0.7,2.2
			c-0.3,0.3-0.8-0.3-1.5-1.3l-2.2,1.7c-0.3,0-0.3,0-0.5,0c0.2,0.2,0.5,0.2,0.7,0c0,0,0,0,0-0.3l2.3,1.3l-0.3,0.5l-2.8-1.2l-1.5,1.2
			l1.5,1.2l3-1.2l0.2,0.3l-2,1.3c-0.2-0.2-0.3-0.2-0.3-0.2s-0.2,0-0.3,0l2.2,1.3c0.7-1,1.2-1.7,1.3-1.7c0.3,0.3,0,1.3-0.5,2.3
			c-0.7,1-1.3,1.8-1.7,1.7c0-0.2,0-1,0.7-2l-2.2-1.3c0,0.3,0,0.5,0.2,0.5h0.2v2.5l-0.3,0.2l-0.3,0.2l-2.2-1.2v-0.2
			c0-0.2,0-0.3-0.2-0.3v2.5c1,0,2,0.2,2,0.5s-1,0.5-2.2,0.5c-1.3,0-2.2-0.2-2.2-0.5s0.8-0.5,1.8-0.5v-2.5c-0.2,0-0.3,0.2-0.3,0.3
			c0,0,0,0.2,0.2,0.2l-2.2,1.2l-0.2-0.2h-0.3v-2.5c0,0,0,0,0.2,0c0.2-0.2,0.2-0.3,0.2-0.5l-2.2,1.5c0.7,0.8,1,1.7,0.7,1.8
			c-0.3,0.2-1-0.7-1.7-1.7c-0.7-0.8-1-1.8-0.8-2.2c0.3,0,1,0.7,1.5,1.5l2.2-1.5c0,0-0.2,0-0.3,0.2c-0.2,0-0.2,0-0.3,0.2l-2-1.2
			l0.2-0.5l3,1l1.5-1.2l-1.5-1l-3,1.2v-0.5l1.8-1.2c0,0,0.2,0.2,0.3,0.2c0.2,0.2,0.5,0,0.7,0c-0.2,0-0.3,0-0.5-0.2l-2.3-1.3
			c-0.5,0.8-1.2,1.5-1.5,1.3c-0.2,0,0.2-1.2,0.8-2.2c0.5-1,1.2-1.8,1.5-1.7c0.2,0.2,0,1-0.7,2l2.3,1.3c0.3,0.2,0.5,0.2,0.5,0.5
			c0-0.3,0-0.7-0.3-0.7c-0.2-0.2-0.2-0.2-0.3-0.2l0.2-2.3l0.3-0.2l0.2-0.2l2.2,1c-0.2,0.3-0.2,0.3-0.2,0.3c0,0.3,0.2,0.5,0.3,0.5
			c0,0,0-0.2,0-0.3v-2.7c-1-0.2-1.8-0.3-1.8-0.7c0-0.3,0.8-0.5,2.2-0.5c1.2,0,2.2,0.2,2.2,0.5s-1,0.5-2,0.7v2.7
			c0,0.2-0.2,0.3-0.2,0.3c0.3,0,0.5-0.2,0.5-0.5c0,0-0.2,0-0.2-0.3l2.2-1l0.2,0.2h0.2l0.2,2.3c-0.2,0-0.2,0-0.3,0
			c-0.2,0.3-0.3,0.5-0.2,0.7c0,0,0.2-0.2,0.3-0.3l2.3-1.3c-0.7-1-0.8-1.8-0.7-2C653,412.1,653.7,412.7,654.5,413.7z"/>
		<path class="st6" d="M648.2,522.4c-0.2,0-0.3,0-0.3,0l2.3,1.3l-0.2,0.2l-2.5-1.3c0,0.3,0.2,0.3,0.2,0.3c0.2,0.2,0.2,0.2,0.2,0.2
			l0.3,0.8h-0.5l-0.5-1.3l-1-0.5v1.2l1,1l-0.2,0.3l-0.8-0.7c0-0.2,0-0.3,0-0.5l-0.2,3h-0.3v-3c-0.2,0.2-0.2,0.3-0.2,0.5l-0.7,0.7
			l-0.2-0.3l0.8-1v-1l-0.8,0.3l-0.5,1.5l-0.3-0.2v-0.8c0.2,0,0.2,0,0.3,0c0,0,0.2-0.2,0.2-0.3l-2.5,1.5l-0.2-0.3l2.3-1.5
			c-0.2,0-0.2,0-0.3,0c0,0,0,0.2-0.2,0.2l-0.8-0.2v-0.3h1.7l0.8-0.5l-0.8-0.5l-1.7,0.2v-0.3l0.8-0.3c0.2,0,0.2,0,0.3,0.2
			c0,0,0.2,0,0.3,0l-2.7-1.7l0.2-0.2l2.7,1.5c0-0.2,0-0.3-0.2-0.3c0-0.2-0.3-0.2-0.3-0.2l-0.2-0.8h0.3l0.7,1.3l0.8,0.5v-1l-0.8-1.3
			l0.2-0.2l0.7,0.7v0.2c0,0.2,0,0.3,0.2,0.3v-3.2h0.3l0.2,3.2c0,0,0.2-0.2,0.2-0.3c0-0.2-0.2-0.2-0.2-0.2l0.8-0.7l0.2,0.2l-1,1.3
			v0.8l0.8-0.3l0.5-1.5l0.5,0.2l-0.2,0.8c-0.2,0-0.2,0-0.3,0c0,0.2-0.2,0.3-0.2,0.3l2.7-1.7l0.2,0.5l-2.5,1.5c0,0.2,0.2,0,0.3,0
			l0.2-0.2l0.8,0.3v0.3l-1.5-0.2l-0.8,0.7l0.8,0.5l1.5-0.3l0.2,0.3L648.2,522.4z"/>
	</g>
	<g>
		<path class="st5" d="M718.6,470.9l3.8,4c-8,17-16.2,27.1-26.4,27.1c-10,0-13.5-9.2,4.8-36.9c4.8-7.2,7.4-12.5,5-12.5
			c-4.5,0-21.9,21.9-32.9,44.6l-1.2-8.2c14.5-29.4,31.4-46.5,42.1-46.5c5.7,0,8.9,6.7,4,15.4c-16,28.4-18.9,33.8-16,33.8
			C706.4,491.6,712.7,483.3,718.6,470.9z M698.8,442.5l-27.7,59h-13.9l28.1-59H698.8z"/>
		<path class="st6" d="M692.6,516.5l1.7-0.8l0.3-2.5l-2,1.5V516.5z M692.6,520.4l2.2,1.8l-0.3-2.8l-1.8-0.8v1.8H692.6z M689.8,522.1
			l2-1.7l-0.2-1.8l-1.5,0.8L689.8,522.1z M689.6,513l0.5,2.8l1.5,0.7l0.2-1.8L689.6,513z M698.5,513.5c0.7,1.2,1,2.2,0.7,2.2
			c-0.3,0.3-0.8-0.3-1.5-1.3l-2.2,1.7c-0.3,0-0.3,0-0.5,0c0.2,0.2,0.5,0.2,0.7,0c0,0,0,0,0-0.3l2.3,1.3l-0.3,0.5l-2.8-1.2l-1.5,1.2
			l1.5,1.2l3-1.2l0.2,0.3l-2,1.3c-0.2-0.2-0.3-0.2-0.3-0.2s-0.2,0-0.3,0l2.2,1.3c0.7-1,1.2-1.7,1.3-1.7c0.3,0.3,0,1.3-0.5,2.3
			c-0.7,1-1.3,1.8-1.7,1.7c0-0.2,0-1,0.7-2l-2.2-1.3c0,0.3,0,0.5,0.2,0.5h0.2v2.5l-0.3,0.2l-0.3,0.2l-2.2-1.2v-0.2
			c0-0.2,0-0.3-0.2-0.3v2.5c1,0,2,0.2,2,0.5s-1,0.5-2.2,0.5c-1.3,0-2.2-0.2-2.2-0.5s0.8-0.5,1.8-0.5V521c-0.2,0-0.3,0.2-0.3,0.3
			c0,0,0,0.2,0.2,0.2l-2.2,1.2l-0.2-0.2h-0.3V520c0,0,0,0,0.2,0c0.2-0.2,0.2-0.3,0.2-0.5l-2.2,1.5c0.7,0.8,1,1.7,0.7,1.8
			c-0.3,0.2-1-0.7-1.7-1.7c-0.7-0.8-1-1.8-0.8-2.2c0.3,0,1,0.7,1.5,1.5l2.2-1.5c0,0-0.2,0-0.3,0.2c-0.2,0-0.2,0-0.3,0.2l-2-1.2
			l0.2-0.5l3,1l1.5-1.2l-1.5-1l-3,1.2v-0.5l1.8-1.2c0,0,0.2,0.2,0.3,0.2c0.2,0.2,0.5,0,0.7,0c-0.2,0-0.3,0-0.5-0.2l-2.3-1.3
			c-0.5,0.8-1.2,1.5-1.5,1.3c-0.2,0,0.2-1.2,0.8-2.2c0.5-1,1.2-1.8,1.5-1.7c0.2,0.2,0,1-0.7,2l2.3,1.3c0.3,0.2,0.5,0.2,0.5,0.5
			c0-0.3,0-0.7-0.3-0.7c-0.2-0.2-0.2-0.2-0.3-0.2l0.2-2.3l0.3-0.2l0.2-0.2l2.2,1c-0.2,0.3-0.2,0.3-0.2,0.3c0,0.3,0.2,0.5,0.3,0.5
			c0,0,0-0.2,0-0.3V511c-1-0.2-1.8-0.3-1.8-0.7c0-0.3,0.8-0.5,2.2-0.5c1.2,0,2.2,0.2,2.2,0.5s-1,0.5-2,0.7v2.7
			c0,0.2-0.2,0.3-0.2,0.3c0.3,0,0.5-0.2,0.5-0.5c0,0-0.2,0-0.2-0.3l2.2-1l0.2,0.2h0.2l0.2,2.3c-0.2,0-0.2,0-0.3,0
			c-0.2,0.3-0.3,0.5-0.2,0.7c0,0,0.2-0.2,0.3-0.3l2.3-1.3c-0.7-1-0.8-1.8-0.7-2C697,511.9,697.7,512.5,698.5,513.5z"/>
		<path class="st6" d="M695,422.9c0.2,0,0.2-0.2,0.2-0.2H695C695,422.8,695,422.8,695,422.9z M692.6,424.6c0.7-0.3,1.5-0.7,2.2-1.3
			l-0.5-0.7l-2-1l-0.2,2.2L692.6,424.6z M692,424.6L692,424.6h0.2H692z M691,424.6h0.2H691z M688.5,423.4c0.5,0.5,1.5,0.8,2.2,1.2
			l0.3-0.8l-0.2-2l-1.8,0.8L688.5,423.4z M688.3,422.9h-0.2c0.2,0.2,0.2,0.2,0.2,0.2V422.9z M687.6,422.3L687.6,422.3h0.2
			C687.6,422.3,687.6,422.3,687.6,422.3z M687.1,420.3c0,0.5,0,1,0.2,1.7l1-0.3l1.7-1.2l-1.7-1.3h-1
			C687.1,419.4,687.1,419.8,687.1,420.3z M688,418.8l-0.3-0.3c-0.3,0.2-0.3,0.2-0.3,0.3C687.6,418.9,687.6,418.9,688,418.8z
			 M688.3,417.4c-0.3,0-0.3,0.2-0.3,0.2l0.5,0.3C688.5,417.8,688.3,417.4,688.3,417.4z M690.5,415.7c-0.8,0.2-1.5,0.8-2.2,1.5
			l0.7,0.8l1.8,0.8l0.2-2L690.5,415.7z M691.1,416.4v-0.7c-0.2,0-0.2,0-0.3,0C690.8,415.9,691,416.2,691.1,416.4z M692.5,415.7
			c-0.2,0-0.3,0-0.5,0v0.7C692.1,416.2,692.5,416.1,692.5,415.7z M694.6,417.1c-0.5-0.5-1.2-1.2-2-1.2l-0.5,1l0.2,2l1.8-1
			L694.6,417.1z M694.6,417.9l0.5-0.3c-0.2-0.2-0.2-0.2-0.3-0.3C694.6,417.4,694.6,417.6,694.6,417.9z M695.7,418.6v-0.3l-0.5,0.3
			C695.3,418.6,695.7,418.6,695.7,418.6z M696,420.3c0-0.7,0-1-0.2-1.3l-1.2,0.2l-1.7,1.2l1.8,1.3h1C696,421.3,696,420.6,696,420.3z
			 M695.5,421.9l0.2,0.2c0-0.2,0-0.2,0-0.2H695.5z M701,423.9c0.5,0.3,0.8,1.3,0.5,2s-1.3,0.8-2,0.5c-0.5-0.2-0.7-1-0.7-1.5
			l-3.2-1.8c-0.2,0-0.3,0.2-0.3,0.2c0.3,0.3,0.3,0.3,0.5,0.3l2.3,2.8l-0.8,0.2l-2.3-3c-0.5,0.7-1.3,1.2-2.3,1.3l1.5,3.5l-0.5,0.5
			l-1.5-3.3c0.2-0.2,0.2-0.2,0.2-0.5c0-0.2,0-0.2,0-0.2c-0.2,0-0.2,0-0.3,0v4c0.7,0,1,0.7,1,1.3c0,0.8-0.5,1.5-1.3,1.5
			s-1.3-0.7-1.3-1.5c0-0.7,0.3-1.2,1-1.3l-0.2-4c-0.2,0-0.2,0-0.3,0c0,0,0,0,0,0.2c0,0.3,0,0.3,0.2,0.5l-1.5,3.3l-0.5-0.5l1.5-3.5
			c-0.8-0.2-1.5-0.7-2.2-1.2l-2.2,3h-0.8l2.3-3.2c0,0,0.2,0,0.3,0c0-0.2-0.2-0.3-0.3-0.3l-3.2,1.8c0.3,0.7,0,1.3-0.5,1.7
			c-0.7,0.5-1.5,0.3-2-0.3s-0.2-1.7,0.5-2.2c0.5-0.3,1.2,0,1.7,0.3l3.2-2l-0.2-0.3c-0.2,0-0.3,0.2-0.3,0.3l-3.7,0.5l0.2-0.7l3.7-0.5
			c-0.2-0.7-0.3-1.2-0.3-1.7s0.2-0.8,0.2-1.3l-3.5-0.3l-0.2-0.7l3.7,0.3c0,0.2,0,0.3,0.2,0.3c0-0.2,0.2-0.3,0.2-0.3l-3.5-2.2
			c-0.5,0.5-1.2,0.5-1.7,0.2c-0.7-0.3-1-1.2-0.5-1.8c0.3-0.7,1.2-1,1.8-0.5c0.7,0.3,0.8,1,0.7,1.7l3.7,1.8c0,0,0-0.2,0-0.3l-2.5-2.8
			l0.7-0.3l2.2,3c0.7-0.7,1.5-1.2,2.3-1.5l-1.3-3.2l0.5-0.5l1.5,3.5c0,0-0.2,0-0.2,0.2c0.2-0.2,0.2-0.2,0.3-0.2l0.2-4
			c-0.7-0.2-1-0.7-1-1.3c0-0.8,0.5-1.5,1.3-1.5s1.3,0.7,1.3,1.5c0,0.7-0.3,1.2-1,1.3v4c0.2,0,0.3,0.2,0.5,0.2c0-0.2-0.2-0.2-0.2-0.2
			l1.3-3.5l0.5,0.5l-1.2,3.2c0.7,0.3,1.5,0.7,2,1.2l2-2.8l0.7,0.2l-2,3c-0.2,0-0.3,0-0.3,0c0,0.2,0,0.3,0.3,0.5l3.3-2.2
			c-0.2-0.7,0-1.3,0.5-1.8c0.7-0.3,1.7-0.2,2,0.5c0.5,0.7,0.3,1.7-0.3,2c-0.7,0.3-1.3,0.3-1.8-0.2l-3.3,2.3c0,0,0,0.2,0.2,0.2
			c0,0,0,0,0.2-0.2l3.7-0.5l-0.2,0.7l-3.7,0.7c0.2,0.3,0.2,0.7,0.2,1.3c0,0.3,0,1-0.2,1.3l3.7,0.3l0.3,0.8l-3.8-0.5
			c0,0,0-0.2-0.2-0.3c-0.2,0.2-0.2,0.3-0.2,0.3l3.2,2C699.5,423.8,700.3,423.6,701,423.9z"/>
	</g>
	<g>
		<path class="st5" d="M752.1,431.3c-1.2,4.5-5.9,8.2-10.5,8.2c-4.5,0-7.4-3.7-6-8.2c1.2-4.5,5.9-8.4,10.5-8.4
			C750.6,422.9,753.3,426.8,752.1,431.3z M714.5,479.4c9-19.2,20.9-15.4,13.9,0c-3.7,7.9-5,11.7-2,11.7c4.3,0,9.5-7.9,15.4-20.2
			l3.8,4c-8,17-16.2,27.1-26.2,27.1C710.2,502,707.7,493.8,714.5,479.4z M745.6,442.5l-17.2,36.9h-13.9l17.4-36.9H745.6z"/>
		<path class="st6" d="M730.8,406.7l1.7-0.8l0.3-2.5l-2,1.5V406.7z M730.8,410.6l2.2,1.8l-0.3-2.8l-1.8-0.8v1.8H730.8z M727.9,412.2
			l2-1.7l-0.2-1.8l-1.5,0.8L727.9,412.2z M727.7,403.2l0.5,2.8l1.5,0.7l0.2-1.8L727.7,403.2z M736.6,403.7c0.7,1.2,1,2.2,0.7,2.2
			c-0.3,0.3-0.8-0.3-1.5-1.3l-2.2,1.7c-0.3,0-0.3,0-0.5,0c0.2,0.2,0.5,0.2,0.7,0c0,0,0,0,0-0.3l2.3,1.3l-0.3,0.5l-2.8-1.2l-1.5,1.2
			l1.5,1.2l3-1.2l0.2,0.3l-2,1.3c-0.2-0.2-0.3-0.2-0.3-0.2s-0.2,0-0.3,0l2.2,1.3c0.7-1,1.2-1.7,1.3-1.7c0.3,0.3,0,1.3-0.5,2.3
			c-0.7,1-1.3,1.8-1.7,1.7c0-0.2,0-1,0.7-2l-2.2-1.3c0,0.3,0,0.5,0.2,0.5h0.2v2.5l-0.3,0.2l-0.3,0.2l-2.2-1.2v-0.2
			c0-0.2,0-0.3-0.2-0.3v2.5c1,0,2,0.2,2,0.5s-1,0.5-2.2,0.5c-1.3,0-2.2-0.2-2.2-0.5s0.8-0.5,1.8-0.5v-2.5c-0.2,0-0.3,0.2-0.3,0.3
			c0,0,0,0.2,0.2,0.2l-2.2,1.2l-0.2-0.2h-0.3v-2.5c0,0,0,0,0.2,0c0.2-0.2,0.2-0.3,0.2-0.5l-2.2,1.5c0.7,0.8,1,1.7,0.7,1.8
			c-0.3,0.2-1-0.7-1.7-1.7c-0.7-0.8-1-1.8-0.8-2.2c0.3,0,1,0.7,1.5,1.5l2.2-1.5c0,0-0.2,0-0.3,0.2c-0.2,0-0.2,0-0.3,0.2l-2-1.2
			l0.2-0.5l3,1l1.5-1.2l-1.5-1l-3,1.2v-0.5l1.8-1.2c0,0,0.2,0.2,0.3,0.2c0.2,0.2,0.5,0,0.7,0c-0.2,0-0.3,0-0.5-0.2l-2.3-1.3
			c-0.5,0.8-1.2,1.5-1.5,1.3c-0.2,0,0.2-1.2,0.8-2.2c0.5-1,1.2-1.8,1.5-1.7c0.2,0.2,0,1-0.7,2l2.3,1.3c0.3,0.2,0.5,0.2,0.5,0.5
			c0-0.3,0-0.7-0.3-0.7c-0.2-0.2-0.2-0.2-0.3-0.2l0.2-2.3l0.3-0.2l0.2-0.2l2.2,1c-0.2,0.3-0.2,0.3-0.2,0.3c0,0.3,0.2,0.5,0.3,0.5
			c0,0,0-0.2,0-0.3v-2.7c-1-0.2-1.8-0.3-1.8-0.7s0.8-0.5,2.2-0.5c1.2,0,2.2,0.2,2.2,0.5s-1,0.5-2,0.7v2.7c0,0.2-0.2,0.3-0.2,0.3
			c0.3,0,0.5-0.2,0.5-0.5c0,0-0.2,0-0.2-0.3l2.2-1l0.2,0.2h0.2l0.2,2.3c-0.2,0-0.2,0-0.3,0c-0.2,0.3-0.3,0.5-0.2,0.7
			c0,0,0.2-0.2,0.3-0.3l2.3-1.3c-0.7-1-0.8-1.8-0.7-2C735.1,402,735.8,402.7,736.6,403.7z"/>
		<path class="st6" d="M729.6,525.4c-0.2,0-0.3,0-0.3,0l2.3,1.3l-0.2,0.2l-2.5-1.3c0,0.3,0.2,0.3,0.2,0.3c0.2,0.2,0.2,0.2,0.2,0.2
			l0.3,0.8h-0.5l-0.5-1.3l-1-0.5v1.2l1,1l-0.2,0.3l-0.8-0.7c0-0.2,0-0.3,0-0.5l-0.2,3h-0.3v-3c-0.2,0.2-0.2,0.3-0.2,0.5l-0.7,0.7
			l-0.2-0.3l0.8-1v-1l-0.8,0.3l-0.5,1.5l-0.3-0.2v-0.8c0.2,0,0.2,0,0.3,0c0,0,0.2-0.2,0.2-0.3l-2.5,1.5L723,527l2.3-1.5
			c-0.2,0-0.2,0-0.3,0c0,0,0,0.2-0.2,0.2l-0.8-0.2v-0.3h1.7l0.8-0.5l-0.8-0.5l-1.7,0.2v-0.3l0.8-0.3c0.2,0,0.2,0,0.3,0.2
			c0,0,0.2,0,0.3,0l-2.7-1.7l0.2-0.2l2.7,1.5c0-0.2,0-0.3-0.2-0.3c0-0.2-0.3-0.2-0.3-0.2l-0.2-0.8h0.3l0.7,1.3l0.8,0.5v-1l-0.8-1.3
			l0.2-0.2l0.7,0.7v0.2c0,0.2,0,0.3,0.2,0.3v-3.2h0.3l0.2,3.2c0,0,0.2-0.2,0.2-0.3s-0.2-0.2-0.2-0.2l0.8-0.7l0.2,0.2l-1,1.3v0.8
			l0.8-0.3l0.5-1.5l0.5,0.2l-0.2,0.8c-0.2,0-0.2,0-0.3,0c0,0.2-0.2,0.3-0.2,0.3l2.7-1.7l0.2,0.5l-2.5,1.5c0,0.2,0.2,0,0.3,0l0.2-0.2
			l0.8,0.3v0.3l-1.5-0.2l-0.8,0.7l0.8,0.5l1.5-0.3l0.2,0.3L729.6,525.4z"/>
	</g>
	<g>
		<path class="st5" d="M781.1,442.5h13.7c0,0-17.2,35.9-28.4,59.5c-11,23.6-27.6,40.3-39.1,32.9c-4.5-3-5.9-7.9-3.2-13.4
			c8.9-18.9,52.5-19.7,67.7-50.6l4,4c-11.4,26.6-61,35.8-65.9,49.6c-0.7,1.8-0.3,3.3,0.7,4.2c8,5.9,28.1-35.9,33.9-47l4.8-1.3
			l9-32.1L781.1,442.5z M769.5,469.1c5.2-11,8.9-20.1,5-22.1c-3.7-2.2-12.9,9.4-18.4,21.1c-4.8,10.2-7.7,21.1-4.5,22.6
			C755,492.3,764,480.8,769.5,469.1z M741.6,471.1c13-26.2,27.2-33.8,35.6-30.1c6.9,3.2,5.5,15.5-1.3,30.1
			c-7.9,17-24.7,36.4-35.9,29.6C734.3,497,734.8,484.8,741.6,471.1z"/>
		<path class="st6" d="M765.7,410.1l1.7-0.8l0.3-2.5l-2,1.5V410.1z M765.7,413.9l2.2,1.8l-0.3-2.8l-1.8-0.8v1.8H765.7z M762.8,415.6
			l2-1.7l-0.2-1.8l-1.5,0.8L762.8,415.6z M762.7,406.6l0.5,2.8l1.5,0.7l0.2-1.8L762.7,406.6z M771.5,407.1c0.7,1.2,1,2.2,0.7,2.2
			c-0.3,0.3-0.8-0.3-1.5-1.3l-2.2,1.7c-0.3,0-0.3,0-0.5,0c0.2,0.2,0.5,0.2,0.7,0c0,0,0,0,0-0.3l2.3,1.3l-0.3,0.5l-2.8-1.2l-1.5,1.2
			l1.5,1.2l3-1.2l0.2,0.3l-2,1.3c-0.2-0.2-0.3-0.2-0.3-0.2s-0.2,0-0.3,0l2.2,1.3c0.7-1,1.2-1.7,1.3-1.7c0.3,0.3,0,1.3-0.5,2.3
			c-0.7,1-1.3,1.8-1.7,1.7c0-0.2,0-1,0.7-2l-2.2-1.3c0,0.3,0,0.5,0.2,0.5h0.2v2.5l-0.3,0.2l-0.3,0.2l-2.2-1.2v-0.2
			c0-0.2,0-0.3-0.2-0.3v2.5c1,0,2,0.2,2,0.5s-1,0.5-2.2,0.5c-1.3,0-2.2-0.2-2.2-0.5s0.8-0.5,1.8-0.5v-2.5c-0.2,0-0.3,0.2-0.3,0.3
			c0,0,0,0.2,0.2,0.2l-2.2,1.2l-0.2-0.2h-0.3v-2.5c0,0,0,0,0.2,0c0.2-0.2,0.2-0.3,0.2-0.5l-2.2,1.5c0.7,0.8,1,1.7,0.7,1.8
			c-0.3,0.2-1-0.7-1.7-1.7c-0.7-0.8-1-1.8-0.8-2.2c0.3,0,1,0.7,1.5,1.5l2.2-1.5c0,0-0.2,0-0.3,0.2c-0.2,0-0.2,0-0.3,0.2l-2-1.2
			l0.2-0.5l3,1l1.5-1.2l-1.5-1l-3,1.2v-0.5l1.8-1.2c0,0,0.2,0.2,0.3,0.2c0.2,0.2,0.5,0,0.7,0c-0.2,0-0.3,0-0.5-0.2l-2.3-1.3
			c-0.5,0.8-1.2,1.5-1.5,1.3c-0.2,0,0.2-1.2,0.8-2.2c0.5-1,1.2-1.8,1.5-1.7c0.2,0.2,0,1-0.7,2l2.3,1.3c0.3,0.2,0.5,0.2,0.5,0.5
			c0-0.3,0-0.7-0.3-0.7c-0.2-0.2-0.2-0.2-0.3-0.2l0.2-2.3l0.3-0.2l0.2-0.2l2.2,1c-0.2,0.3-0.2,0.3-0.2,0.3c0,0.3,0.2,0.5,0.3,0.5
			c0,0,0-0.2,0-0.3v-2.7c-1-0.2-1.8-0.3-1.8-0.7s0.8-0.5,2.2-0.5c1.2,0,2.2,0.2,2.2,0.5s-1,0.5-2,0.7v2.7c0,0.2-0.2,0.3-0.2,0.3
			c0.3,0,0.5-0.2,0.5-0.5c0,0-0.2,0-0.2-0.3l2.2-1l0.2,0.2h0.2l0.2,2.3c-0.2,0-0.2,0-0.3,0c-0.2,0.3-0.3,0.5-0.2,0.7
			c0,0,0.2-0.2,0.3-0.3l2.3-1.3c-0.7-1-0.8-1.8-0.7-2C770,405.4,770.7,406.1,771.5,407.1z"/>
		<path class="st6" d="M771.5,526.7c-0.2,0-0.3,0-0.3,0l2.3,1.3l-0.2,0.2l-2.5-1.3c0,0.3,0.2,0.3,0.2,0.3c0.2,0.2,0.2,0.2,0.2,0.2
			l0.3,0.8H771l-0.5-1.3l-1-0.5v1.2l1,1l-0.2,0.3l-0.8-0.7c0-0.2,0-0.3,0-0.5l-0.2,3H769v-3c-0.2,0.2-0.2,0.3-0.2,0.5l-0.7,0.7
			l-0.2-0.3l0.8-1v-1l-0.8,0.3l-0.5,1.5l-0.3-0.2v-0.8c0.2,0,0.2,0,0.3,0c0,0,0.2-0.2,0.2-0.3l-2.5,1.5l-0.2-0.3l2.3-1.5
			c-0.2,0-0.2,0-0.3,0c0,0,0,0.2-0.2,0.2l-0.8-0.2v-0.3h1.7l0.8-0.5l-0.8-0.5l-1.7,0.2v-0.3l0.8-0.3c0.2,0,0.2,0,0.3,0.2
			c0,0,0.2,0,0.3,0l-2.7-1.7l0.2-0.2l2.7,1.5c0-0.2,0-0.3-0.2-0.3c0-0.2-0.3-0.2-0.3-0.2l-0.2-0.8h0.3l0.7,1.3l0.8,0.5v-1l-0.8-1.3
			l0.2-0.2l0.7,0.7v0.2c0,0.2,0,0.3,0.2,0.3v-3.2h0.3l0.2,3.2c0,0,0.2-0.2,0.2-0.3c0-0.2-0.2-0.2-0.2-0.2l0.8-0.7l0.2,0.2l-1,1.3
			v0.8l0.8-0.3l0.5-1.5l0.5,0.2l-0.2,0.8c-0.2,0-0.2,0-0.3,0c0,0.2-0.2,0.3-0.2,0.3l2.7-1.7l0.2,0.5l-2.5,1.5c0,0.2,0.2,0,0.3,0
			l0.2-0.2l0.8,0.3v0.3l-1.5-0.2l-0.8,0.7l0.8,0.5l1.5-0.3l0.2,0.3L771.5,526.7z"/>
	</g>
	<g>
		<path class="st5" d="M849.6,399.5c-1.8-1.3-16.9,16.4-32.6,46.8l-4.5,9.7C833.4,430.6,852.6,401.7,849.6,399.5z M854.4,386.5
			c10,6.2-4.8,38.9-49.8,86.1l-13.7,28.9h-13.7c0,0,27.6-58.3,27.9-59C825,403.4,844.4,380.3,854.4,386.5z M838.6,470.9l3.8,4
			c-8,17-16.2,27.1-26.2,27.1c-10.2,0-13.7-9.2,4.7-36.9c4.8-7.2,7.4-12.5,5-12.5c-4.5,0-21.9,21.9-32.9,44.6l-1.2-8.2
			c14.5-29.4,31.4-46.5,42.1-46.5c5.7,0,8.9,6.7,4,15.4C822,486.3,819,491.6,822,491.6C826.4,491.6,832.7,483.3,838.6,470.9z"/>
		<path class="st6" d="M815.7,524.9l1.7-0.8l0.3-2.5l-2,1.5V524.9z M815.7,528.7l2.2,1.8l-0.3-2.8l-1.8-0.8v1.8H815.7z M812.8,530.4
			l2-1.7l-0.2-1.8l-1.5,0.8L812.8,530.4z M812.7,521.4l0.5,2.8l1.5,0.7l0.2-1.8L812.7,521.4z M821.5,521.9c0.7,1.2,1,2.2,0.7,2.2
			c-0.3,0.3-0.8-0.3-1.5-1.3l-2.2,1.7c-0.3,0-0.3,0-0.5,0c0.2,0.2,0.5,0.2,0.7,0c0,0,0,0,0-0.3l2.3,1.3l-0.3,0.5l-2.8-1.2l-1.5,1.2
			l1.5,1.2l3-1.2l0.2,0.3l-2,1.3c-0.2-0.2-0.3-0.2-0.3-0.2s-0.2,0-0.3,0l2.2,1.3c0.7-1,1.2-1.7,1.3-1.7c0.3,0.3,0,1.3-0.5,2.3
			c-0.7,1-1.3,1.8-1.7,1.7c0-0.2,0-1,0.7-2l-2.2-1.3c0,0.3,0,0.5,0.2,0.5h0.2v2.5l-0.3,0.2l-0.3,0.2l-2.2-1.2v-0.2
			c0-0.2,0-0.3-0.2-0.3v2.5c1,0,2,0.2,2,0.5s-1,0.5-2.2,0.5c-1.3,0-2.2-0.2-2.2-0.5s0.8-0.5,1.8-0.5v-2.5c-0.2,0-0.3,0.2-0.3,0.3
			c0,0,0,0.2,0.2,0.2l-2.2,1.2l-0.2-0.2h-0.3v-2.5c0,0,0,0,0.2,0c0.2-0.2,0.2-0.3,0.2-0.5l-2.2,1.5c0.7,0.8,1,1.7,0.7,1.8
			c-0.3,0.2-1-0.7-1.7-1.7c-0.7-0.8-1-1.8-0.8-2.2c0.3,0,1,0.7,1.5,1.5l2.2-1.5c0,0-0.2,0-0.3,0.2c-0.2,0-0.2,0-0.3,0.2l-2-1.2
			l0.2-0.5l3,1l1.5-1.2l-1.5-1l-3,1.2v-0.5l1.8-1.2c0,0,0.2,0.2,0.3,0.2c0.2,0.2,0.5,0,0.7,0c-0.2,0-0.3,0-0.5-0.2L810,523
			c-0.5,0.8-1.2,1.5-1.5,1.3c-0.2,0,0.2-1.2,0.8-2.2c0.5-1,1.2-1.8,1.5-1.7c0.2,0.2,0,1-0.7,2l2.3,1.3c0.3,0.2,0.5,0.2,0.5,0.5
			c0-0.3,0-0.7-0.3-0.7c-0.2-0.2-0.2-0.2-0.3-0.2l0.2-2.3l0.3-0.2l0.2-0.2l2.2,1c-0.2,0.3-0.2,0.3-0.2,0.3c0,0.3,0.2,0.5,0.3,0.5
			c0,0,0-0.2,0-0.3v-2.7c-1-0.2-1.8-0.3-1.8-0.7c0-0.3,0.8-0.5,2.2-0.5c1.2,0,2.2,0.2,2.2,0.5s-1,0.5-2,0.7v2.7
			c0,0.2-0.2,0.3-0.2,0.3c0.3,0,0.5-0.2,0.5-0.5c0,0-0.2,0-0.2-0.3l2.2-1l0.2,0.2h0.2l0.2,2.3c-0.2,0-0.2,0-0.3,0
			c-0.2,0.3-0.3,0.5-0.2,0.7c0,0,0.2-0.2,0.3-0.3l2.3-1.3c-0.7-1-0.8-1.8-0.7-2C820,520.2,820.7,520.9,821.5,521.9z"/>
		<path class="st6" d="M822.7,389.3l1.7-0.8l0.3-2.5l-2,1.5V389.3z M822.7,393.2l2.2,1.8l-0.3-2.8l-1.8-0.8v1.8H822.7z M819.8,394.9
			l2-1.7l-0.2-1.8l-1.5,0.8L819.8,394.9z M819.7,385.8l0.5,2.8l1.5,0.7l0.2-1.8L819.7,385.8z M828.5,386.3c0.7,1.2,1,2.2,0.7,2.2
			c-0.3,0.3-0.8-0.3-1.5-1.3l-2.2,1.7c-0.3,0-0.3,0-0.5,0c0.2,0.2,0.5,0.2,0.7,0c0,0,0,0,0-0.3l2.3,1.3l-0.3,0.5l-2.8-1.2l-1.5,1.2
			l1.5,1.2l3-1.2l0.2,0.3l-2,1.3c-0.2-0.2-0.3-0.2-0.3-0.2s-0.2,0-0.3,0l2.2,1.3c0.7-1,1.2-1.7,1.3-1.7c0.3,0.3,0,1.3-0.5,2.3
			c-0.7,1-1.3,1.8-1.7,1.7c0-0.2,0-1,0.7-2l-2.2-1.3c0,0.3,0,0.5,0.2,0.5h0.2v2.5l-0.3,0.2l-0.3,0.2l-2.2-1.2v-0.2
			c0-0.2,0-0.3-0.2-0.3v2.5c1,0,2,0.2,2,0.5s-1,0.5-2.2,0.5c-1.3,0-2.2-0.2-2.2-0.5s0.8-0.5,1.8-0.5v-2.5c-0.2,0-0.3,0.2-0.3,0.3
			c0,0,0,0.2,0.2,0.2l-2.2,1.2l-0.2-0.2h-0.3v-2.5c0,0,0,0,0.2,0c0.2-0.2,0.2-0.3,0.2-0.5l-2.2,1.5c0.7,0.8,1,1.7,0.7,1.8
			c-0.3,0.2-1-0.7-1.7-1.7c-0.7-0.8-1-1.8-0.8-2.2c0.3,0,1,0.7,1.5,1.5l2.2-1.5c0,0-0.2,0-0.3,0.2c-0.2,0-0.2,0-0.3,0.2l-2-1.2
			l0.2-0.5l3,1l1.5-1.2l-1.5-1l-3,1.2V390l1.8-1.2c0,0,0.2,0.2,0.3,0.2c0.2,0.2,0.5,0,0.7,0c-0.2,0-0.3,0-0.5-0.2l-2.3-1.3
			c-0.5,0.8-1.2,1.5-1.5,1.3c-0.2,0,0.2-1.2,0.8-2.2c0.5-1,1.2-1.8,1.5-1.7c0.2,0.2,0,1-0.7,2l2.3,1.3c0.3,0.2,0.5,0.2,0.5,0.5
			c0-0.3,0-0.7-0.3-0.7c-0.2-0.2-0.2-0.2-0.3-0.2l0.2-2.3l0.3-0.2l0.2-0.2l2.2,1c-0.2,0.3-0.2,0.3-0.2,0.3c0,0.3,0.2,0.5,0.3,0.5
			c0,0,0-0.2,0-0.3v-2.7c-1-0.2-1.8-0.3-1.8-0.7s0.8-0.5,2.2-0.5c1.2,0,2.2,0.2,2.2,0.5s-1,0.5-2,0.7v2.7c0,0.2-0.2,0.3-0.2,0.3
			c0.3,0,0.5-0.2,0.5-0.5c0,0-0.2,0-0.2-0.3l2.2-1l0.2,0.2h0.2l0.2,2.3c-0.2,0-0.2,0-0.3,0c-0.2,0.3-0.3,0.5-0.2,0.7
			c0,0,0.2-0.2,0.3-0.3l2.3-1.3c-0.7-1-0.8-1.8-0.7-2C827,384.7,827.7,385.3,828.5,386.3z"/>
	</g>
	<g>
		<path class="st5" d="M849.1,491.1c4.3,0,15.9-7.9,21.6-20.2l3.8,4c-8,17-22.4,27.1-32.6,27.1c-9,0-14.2-8.2-7.5-22.6l30.6-65
			l15.4-3.8l-32.1,68.9C844.6,487.3,846.1,491.1,849.1,491.1z M877.2,442.5l-2.3,5.7h-33.1l2.7-5.7H877.2z"/>
		<path class="st6" d="M853.8,514l1.7-0.8l0.3-2.5l-2,1.5V514z M853.8,517.9l2.2,1.8l-0.3-2.8l-1.8-0.8v1.8H853.8z M850.9,519.5
			l2-1.7l-0.2-1.8l-1.5,0.8L850.9,519.5z M850.8,510.5l0.5,2.8l1.5,0.7l0.2-1.8L850.8,510.5z M859.6,511c0.7,1.2,1,2.2,0.7,2.2
			c-0.3,0.3-0.8-0.3-1.5-1.3l-2.2,1.7c-0.3,0-0.3,0-0.5,0c0.2,0.2,0.5,0.2,0.7,0c0,0,0,0,0-0.3l2.3,1.3l-0.3,0.5l-2.8-1.2l-1.5,1.2
			l1.5,1.2l3-1.2l0.2,0.3l-2,1.3c-0.2-0.2-0.3-0.2-0.3-0.2s-0.2,0-0.3,0l2.2,1.3c0.7-1,1.2-1.7,1.3-1.7c0.3,0.3,0,1.3-0.5,2.3
			c-0.7,1-1.3,1.8-1.7,1.7c0-0.2,0-1,0.7-2l-2.2-1.3c0,0.3,0,0.5,0.2,0.5h0.2v2.5l-0.3,0.2l-0.3,0.2L854,519v-0.2
			c0-0.2,0-0.3-0.2-0.3v2.5c1,0,2,0.2,2,0.5s-1,0.5-2.2,0.5c-1.3,0-2.2-0.2-2.2-0.5s0.8-0.5,1.8-0.5v-2.5c-0.2,0-0.3,0.2-0.3,0.3
			c0,0,0,0.2,0.2,0.2l-2.2,1.2l-0.2-0.2h-0.3v-2.5c0,0,0,0,0.2,0c0.2-0.2,0.2-0.3,0.2-0.5l-2.2,1.5c0.7,0.8,1,1.7,0.7,1.8
			c-0.3,0.2-1-0.7-1.7-1.7c-0.7-0.8-1-1.8-0.8-2.2c0.3,0,1,0.7,1.5,1.5l2.2-1.5c0,0-0.2,0-0.3,0.2c-0.2,0-0.2,0-0.3,0.2l-2-1.2
			l0.2-0.5l3,1l1.5-1.2l-1.5-1l-3,1.2v-0.5l1.8-1.2c0,0,0.2,0.2,0.3,0.2c0.2,0.2,0.5,0,0.7,0c-0.2,0-0.3,0-0.5-0.2l-2.3-1.3
			c-0.5,0.8-1.2,1.5-1.5,1.3c-0.2,0,0.2-1.2,0.8-2.2c0.5-1,1.2-1.8,1.5-1.7c0.2,0.2,0,1-0.7,2l2.3,1.3c0.3,0.2,0.5,0.2,0.5,0.5
			c0-0.3,0-0.7-0.3-0.7c-0.2-0.2-0.2-0.2-0.3-0.2l0.2-2.3l0.3-0.2l0.2-0.2l2.2,1c-0.2,0.3-0.2,0.3-0.2,0.3c0,0.3,0.2,0.5,0.3,0.5
			c0,0,0-0.2,0-0.3v-2.7c-1-0.2-1.8-0.3-1.8-0.7c0-0.3,0.8-0.5,2.2-0.5c1.2,0,2.2,0.2,2.2,0.5s-1,0.5-2,0.7v2.7
			c0,0.2-0.2,0.3-0.2,0.3c0.3,0,0.5-0.2,0.5-0.5c0,0-0.2,0-0.2-0.3l2.2-1l0.2,0.2h0.2l0.2,2.3c-0.2,0-0.2,0-0.3,0
			c-0.2,0.3-0.3,0.5-0.2,0.7c0,0,0.2-0.2,0.3-0.3l2.3-1.3c-0.7-1-0.8-1.8-0.7-2C858.1,509.4,858.8,510,859.6,511z"/>
		<path class="st6" d="M858.3,402.9c0.2,0,0.2-0.2,0.2-0.2h-0.2C858.3,402.7,858.3,402.7,858.3,402.9z M855.9,404.5
			c0.7-0.3,1.5-0.7,2.2-1.3l-0.5-0.7l-2-1l-0.2,2.2L855.9,404.5z M855.3,404.5L855.3,404.5h0.2H855.3z M854.3,404.5h0.2H854.3z
			 M851.8,403.4c0.5,0.5,1.5,0.8,2.2,1.2l0.3-0.8l-0.2-2l-1.8,0.8L851.8,403.4z M851.6,402.9h-0.2c0.2,0.2,0.2,0.2,0.2,0.2V402.9z
			 M850.9,402.2L850.9,402.2h0.2C850.9,402.2,850.9,402.2,850.9,402.2z M850.4,400.2c0,0.5,0,1,0.2,1.7l1-0.3l1.7-1.2l-1.7-1.3h-1
			C850.4,399.4,850.4,399.7,850.4,400.2z M851.3,398.7l-0.3-0.3c-0.3,0.2-0.3,0.2-0.3,0.3C850.9,398.9,850.9,398.9,851.3,398.7z
			 M851.6,397.4c-0.3,0-0.3,0.2-0.3,0.2l0.5,0.3C851.8,397.7,851.6,397.4,851.6,397.4z M853.8,395.7c-0.8,0.2-1.5,0.8-2.2,1.5
			l0.7,0.8l1.8,0.8l0.2-2L853.8,395.7z M854.4,396.4v-0.7c-0.2,0-0.2,0-0.3,0C854.1,395.9,854.3,396.2,854.4,396.4z M855.8,395.7
			c-0.2,0-0.3,0-0.5,0v0.7C855.4,396.2,855.8,396,855.8,395.7z M858,397c-0.5-0.5-1.2-1.2-2-1.2l-0.5,1l0.2,2l1.8-1L858,397z
			 M858,397.9l0.5-0.3c-0.2-0.2-0.2-0.2-0.3-0.3C858,397.4,858,397.5,858,397.9z M859,398.5v-0.3l-0.5,0.3
			C858.6,398.5,859,398.5,859,398.5z M859.3,400.2c0-0.7,0-1-0.2-1.3L858,399l-1.7,1.2l1.8,1.3h1
			C859.3,401.2,859.3,400.5,859.3,400.2z M858.8,401.9l0.2,0.2c0-0.2,0-0.2,0-0.2H858.8z M864.3,403.9c0.5,0.3,0.8,1.3,0.5,2
			s-1.3,0.8-2,0.5c-0.5-0.2-0.7-1-0.7-1.5L859,403c-0.2,0-0.3,0.2-0.3,0.2c0.3,0.3,0.3,0.3,0.5,0.3l2.3,2.8l-0.8,0.2l-2.3-3
			c-0.5,0.7-1.3,1.2-2.3,1.3l1.5,3.5l-0.5,0.5l-1.5-3.3c0.2-0.2,0.2-0.2,0.2-0.5c0-0.2,0-0.2,0-0.2c-0.2,0-0.2,0-0.3,0v4
			c0.7,0,1,0.7,1,1.3c0,0.8-0.5,1.5-1.3,1.5s-1.3-0.7-1.3-1.5c0-0.7,0.3-1.2,1-1.3l-0.2-4c-0.2,0-0.2,0-0.3,0c0,0,0,0,0,0.2
			c0,0.3,0,0.3,0.2,0.5l-1.5,3.3l-0.5-0.5l1.5-3.5c-0.8-0.2-1.5-0.7-2.2-1.2l-2.2,3h-0.8l2.3-3.2c0,0,0.2,0,0.3,0
			c0-0.2-0.2-0.3-0.3-0.3l-3.2,1.8c0.3,0.7,0,1.3-0.5,1.7c-0.7,0.5-1.5,0.3-2-0.3s-0.2-1.7,0.5-2.2c0.5-0.3,1.2,0,1.7,0.3l3.2-2
			l-0.2-0.3c-0.2,0-0.3,0.2-0.3,0.3l-3.7,0.5l0.2-0.7l3.7-0.5c-0.2-0.7-0.3-1.2-0.3-1.7s0.2-0.8,0.2-1.3l-3.5-0.3l-0.2-0.7l3.7,0.3
			c0,0.2,0,0.3,0.2,0.3c0-0.2,0.2-0.3,0.2-0.3l-3.5-2.2c-0.5,0.5-1.2,0.5-1.7,0.2c-0.7-0.3-1-1.2-0.5-1.8c0.3-0.7,1.2-1,1.8-0.5
			c0.7,0.3,0.8,1,0.7,1.7l3.7,1.8c0,0,0-0.2,0-0.3l-2.5-2.8l0.7-0.3l2.2,3c0.7-0.7,1.5-1.2,2.3-1.5l-1.3-3.2l0.5-0.5l1.5,3.5
			c0,0-0.2,0-0.2,0.2c0.2-0.2,0.2-0.2,0.3-0.2l0.2-4c-0.7-0.2-1-0.7-1-1.3c0-0.8,0.5-1.5,1.3-1.5s1.3,0.7,1.3,1.5
			c0,0.7-0.3,1.2-1,1.3v4c0.2,0,0.3,0.2,0.5,0.2c0-0.2-0.2-0.2-0.2-0.2l1.3-3.5l0.5,0.5l-1.2,3.2c0.7,0.3,1.5,0.7,2,1.2l2-2.8
			l0.7,0.2l-2,3c-0.2,0-0.3,0-0.3,0c0,0.2,0,0.3,0.3,0.5l3.3-2.2c-0.2-0.7,0-1.3,0.5-1.8c0.7-0.3,1.7-0.2,2,0.5
			c0.5,0.7,0.3,1.7-0.3,2c-0.7,0.3-1.3,0.3-1.8-0.2l-3.3,2.3c0,0,0,0.2,0.2,0.2c0,0,0,0,0.2-0.2l3.7-0.5l-0.2,0.7l-3.7,0.7
			c0.2,0.3,0.2,0.7,0.2,1.3c0,0.3,0,1-0.2,1.3l3.7,0.3l0.3,0.8l-3.8-0.5c0,0,0-0.2-0.2-0.3c-0.2,0.2-0.2,0.3-0.2,0.3l3.2,2
			C862.8,403.7,863.6,403.5,864.3,403.9z"/>
	</g>
	<g>
		<path class="st5" d="M891.7,492c-1.3,5.2-6.7,9.5-12,9.5c-5.2,0-8.4-4.3-6.9-9.5c1.3-5.2,6.7-9.4,12-9.4
			C890,482.6,893.1,486.8,891.7,492z M933,409.4l-40.1,61.8h-7.5l29.3-61.8H933z"/>
	</g>
</g>
<g>
	<path class="st0" d="M493.4,961.7l-2.8,8.5H487l9.2-27h4.2l9.2,27h-3.7l-2.9-8.5H493.4z M502.2,958.9l-2.6-7.8
		c-0.6-1.8-1-3.4-1.4-4.9h-0.1c-0.4,1.6-0.8,3.2-1.4,4.9l-2.6,7.8H502.2z"/>
	<path class="st0" d="M513.5,943.5c1.7-0.3,3.9-0.5,6.7-0.5c3.4,0,6,0.8,7.6,2.2c1.5,1.3,2.4,3.2,2.4,5.6c0,2.4-0.7,4.4-2.1,5.8
		c-1.8,2-4.8,3-8.2,3c-1,0-2,0-2.8-0.2v10.8h-3.5v-26.7H513.5z M517,956.5c0.8,0.2,1.7,0.3,2.9,0.3c4.2,0,6.8-2,6.8-5.8
		c0-3.6-2.5-5.3-6.4-5.3c-1.5,0-2.7,0.1-3.3,0.3V956.5z"/>
	<path class="st0" d="M534.8,943.5c1.8-0.4,4.3-0.6,6.7-0.6c3.7,0,6.1,0.7,7.8,2.2c1.4,1.2,2.1,3,2.1,5.1c0,3.6-2.2,5.9-5.1,6.9v0.1
		c2.1,0.7,3.3,2.6,4,5.4c0.9,3.8,1.5,6.4,2.1,7.4h-3.6c-0.4-0.8-1-3.1-1.8-6.4c-0.8-3.7-2.2-5.1-5.4-5.2h-3.3v11.7h-3.5V943.5z
		 M538.3,955.8h3.6c3.7,0,6.1-2,6.1-5.1c0-3.5-2.5-5-6.2-5c-1.7,0-2.9,0.2-3.4,0.3L538.3,955.8L538.3,955.8z"/>
	<path class="st0" d="M559.8,943.2v27h-3.5v-27H559.8z"/>
	<path class="st0" d="M565.9,943.2h3.5v24h11.5v2.9h-15V943.2z"/>
	<path class="st0" d="M599.6,947.4L599.6,947.4l-4.6,2.4l-0.7-2.7l5.7-3h3v26h-3.4V947.4z"/>
	<path class="st0" d="M612.5,970.1V968l2.8-2.7c6.6-6.3,9.6-9.7,9.7-13.6c0-2.6-1.3-5.1-5.2-5.1c-2.4,0-4.3,1.2-5.5,2.2l-1.1-2.5
		c1.8-1.5,4.4-2.6,7.4-2.6c5.6,0,8,3.8,8,7.6c0,4.8-3.5,8.7-9,14l-2.1,1.9v0.1h11.7v2.9h-16.7V970.1z"/>
</g>
<text transform="matrix(1 0 0 1 99.0005 578.0464)" class="st0 st7 st8">Leif Ove Andsnes</text>
<text transform="matrix(1 0 0 1 99.0005 628.0464)" class="st0 st7 st8">Martha Argerich</text>
<text transform="matrix(1 0 0 1 99.0005 678.0464)" class="st0 st7 st8">Claudio Arrau</text>
<text transform="matrix(1 0 0 1 99.0005 728.0464)" class="st0 st7 st8">Vladimir Ashkenazy</text>
<text transform="matrix(1 0 0 1 99.1138 515.9932)" class="st0 st7 st9">Participants:</text>
<g>
	<path class="st0" d="M500,900.6V916h-9.8v-41.4h16.3c3.6,0,6.4,0.4,8.3,1.2c1.9,0.8,3.7,2.2,5.2,4.2s2.3,4.5,2.3,7.4
		c0,2-0.4,4-1.2,6c-0.8,1.9-1.9,3.5-3.4,4.6s-2.9,1.8-4.3,2.2c-1.4,0.4-3.5,0.5-6.5,0.5H500V900.6z M499.7,893.1h6.3
		c2.4,0,4.1-0.6,5.1-1.7c1-1.1,1.5-2.4,1.5-3.8c0-1.7-0.5-3-1.6-4s-2.7-1.5-4.9-1.5h-6.3L499.7,893.1L499.7,893.1z"/>
	<path class="st0" d="M553.4,916h-8.8c-0.3-1.2-0.4-2.8-0.4-4.8c-1.5,2.2-3.1,3.6-4.6,4.3s-3.3,1.1-5.2,1.1c-2.9,0-5.2-0.8-6.9-2.3
		c-1.8-1.6-2.6-3.6-2.6-6.3c0-1.9,0.5-3.7,1.5-5.3s2.7-2.9,5-3.8c2.3-0.9,6.4-1.6,12.5-2v-1.8c0-3-1.5-4.5-4.4-4.5
		c-3.2,0-4.9,1.5-5.3,4.5l-8.3-0.8c0.5-3.5,2.2-5.9,4.9-7.4s5.9-2.2,9.3-2.2c2.1,0,4,0.2,5.9,0.7s3.3,1.2,4.3,2.2s1.7,2,2.1,3.1
		c0.4,1.1,0.5,3,0.5,5.6v13.9C552.8,912.9,553,914.8,553.4,916z M543.8,901.3c-6.3,0.6-9.5,2.5-9.5,5.7c0,1.1,0.3,2,1,2.8
		s1.6,1.2,2.8,1.2c1.6,0,2.9-0.7,4-2s1.6-3,1.6-4.9v-2.8H543.8z"/>
	<path class="st0" d="M569,916h-8.8v-30.6h8.3v5.7c1.3-4.2,3.5-6.4,6.6-6.4c0.4,0,1,0,1.6,0.1v8.9c-1.8,0-3.3,0.3-4.3,0.8
		c-1,0.6-1.9,1.6-2.5,3c-0.6,1.5-1,3.4-1,5.9V916H569z"/>
	<path class="st0" d="M601.7,895.8l10,20.2h-10l-6.4-13.9l-5.3,6.1v7.8h-8.5v-41.4h8.5v24.8l1.3-1.7c0.6-0.8,1-1.4,1.4-1.8l8.9-10.5
		h8.8L601.7,895.8z"/>
	<path class="st0" d="M659.7,883.7l-8.2,2.8c-1.1-3.3-3.5-4.9-7-4.9c-3.8,0-5.7,1.2-5.7,3.7c0,1,0.4,1.8,1.1,2.5
		c0.7,0.7,2.3,1.3,4.9,1.8c4.2,0.9,7.3,1.7,9.3,2.6c2,0.9,3.6,2.3,4.9,4.2c1.3,1.9,2,4.1,2,6.5c0,3.7-1.4,7-4.3,9.7
		c-2.9,2.7-7.1,4.1-12.8,4.1c-4.2,0-7.8-1-10.8-2.9s-4.9-4.8-5.9-8.6l9-2c1,3.9,3.8,5.8,8.4,5.8c2.2,0,3.9-0.4,5-1.3
		c1.1-0.9,1.6-1.9,1.6-3.1c0-1.2-0.5-2.2-1.5-2.8c-1-0.7-2.9-1.3-5.7-1.9c-5.3-1.1-9-2.6-11.3-4.5c-2.2-1.9-3.4-4.6-3.4-8.3
		s1.3-6.8,4-9.3s6.3-3.8,10.9-3.8C652.2,874,657.4,877.2,659.7,883.7z"/>
	<path class="st0" d="M676.5,892.4v12.9c0,1.6,0.2,2.7,0.7,3.2s1.6,0.8,3.4,0.8c0.8,0,1.8,0,2.9-0.1v6.7c-2.6,0.4-4.5,0.7-5.7,0.7
		c-3.8,0-6.4-0.7-8-2.2c-1.6-1.4-2.4-4.1-2.4-7.8v-14.2h-4.8v-7h5.4l0.7-9l7.8-0.6v9.6h6.6v7L676.5,892.4L676.5,892.4z"/>
	<path class="st0" d="M696.9,916h-8.8v-30.6h8.3v5.7c1.3-4.2,3.5-6.4,6.6-6.4c0.4,0,1,0,1.6,0.1v8.9c-1.8,0-3.3,0.3-4.3,0.8
		c-1,0.6-1.9,1.6-2.5,3c-0.6,1.5-1,3.4-1,5.9V916H696.9z"/>
	<path class="st0" d="M737.1,902.2h-19.7c0,0.5,0,1,0,1.4c0,2.2,0.6,3.8,1.7,4.9c1.2,1.1,2.5,1.7,4.2,1.7c3,0,4.8-1.6,5.4-4.8
		l8.2,0.6c-2.3,7.1-6.9,10.6-13.9,10.6c-3,0-5.6-0.6-7.8-1.8s-3.9-3-5.3-5.3c-1.4-2.3-2.1-5.1-2.1-8.4c0-4.9,1.4-8.8,4.2-11.8
		s6.3-4.5,10.7-4.5c3.9,0,7.3,1.4,10.1,4.2C735.7,891.7,737.1,896.1,737.1,902.2z M717.4,897h10.9c-0.3-4.2-2-6.3-5.2-6.3
		C719.7,890.7,717.8,892.8,717.4,897z"/>
	<path class="st0" d="M770.3,902.2h-19.7c0,0.5,0,1,0,1.4c0,2.2,0.6,3.8,1.7,4.9c1.2,1.1,2.5,1.7,4.2,1.7c3,0,4.8-1.6,5.4-4.8
		l8.2,0.6c-2.3,7.1-6.9,10.6-13.9,10.6c-3,0-5.6-0.6-7.8-1.8s-3.9-3-5.3-5.3c-1.4-2.3-2.1-5.1-2.1-8.4c0-4.9,1.4-8.8,4.2-11.8
		s6.3-4.5,10.7-4.5c3.9,0,7.3,1.4,10.1,4.2C768.9,891.7,770.3,896.1,770.3,902.2z M750.6,897h10.9c-0.3-4.2-2-6.3-5.2-6.3
		C752.9,890.7,751,892.8,750.6,897z"/>
	<path class="st0" d="M786.2,892.4v12.9c0,1.6,0.2,2.7,0.7,3.2s1.6,0.8,3.4,0.8c0.8,0,1.8,0,2.9-0.1v6.7c-2.6,0.4-4.5,0.7-5.7,0.7
		c-3.8,0-6.4-0.7-8-2.2c-1.6-1.4-2.4-4.1-2.4-7.8v-14.2h-4.8v-7h5.4l0.7-9l7.8-0.6v9.6h6.6v7L786.2,892.4L786.2,892.4z"/>
	<path class="st0" d="M821.7,891h4.4c2.5,0,4.2-0.5,5.1-1.5c0.9-1,1.3-2.1,1.3-3.3c0-1.3-0.5-2.5-1.5-3.5s-2.3-1.5-4.1-1.5
		c-3.4,0-5.5,1.8-6.3,5.3l-8.6-1.4c0.7-3.2,2.4-5.8,5.1-7.9c2.7-2.1,6.1-3.1,10-3.1c4.2,0,7.7,1,10.5,3s4.3,4.7,4.3,8.1
		c0,4.5-2.4,7.6-7.1,9.2c5.6,1.5,8.3,4.7,8.3,9.8c0,3.6-1.4,6.6-4.3,9c-2.8,2.3-6.8,3.5-11.7,3.5c-4.8,0-8.6-1.2-11.4-3.6
		c-2.8-2.4-4.5-5.4-5-9l8.8-1.3c0.8,4.3,3.3,6.4,7.4,6.4c1.9,0,3.4-0.5,4.6-1.5c1.2-1,1.8-2.4,1.8-4c0-1.8-0.5-3.1-1.6-4
		s-3.1-1.3-6.2-1.3h-3.8V891z"/>
	<path class="st0" d="M875.2,874v25.2h5.8v7.2h-5.8v9.5h-9.7v-9.5h-18.1v-7.2l16.7-25.2H875.2z M854.7,899.2h11.2v-14
		c0-0.5,0-1.2,0.1-2l0.1-1.7L854.7,899.2z"/>
</g>
<line class="st10" x1="32" y1="1110" x2="1013.7" y2="1110"/>
<line class="st10" x1="41.5" y1="1155" x2="1023.2" y2="1155"/>
<line class="st10" x1="41.5" y1="1195" x2="1023.2" y2="1195"/>
<line class="st10" x1="36.8" y1="1232" x2="1018.5" y2="1232"/>
<line class="st10" x1="46.3" y1="1277" x2="1028" y2="1277"/>
<line class="st10" x1="46.3" y1="1317" x2="1028" y2="1317"/>
<line class="st10" x1="41.5" y1="1355" x2="1023.2" y2="1355"/>
<line class="st10" x1="41.5" y1="1395" x2="1023.2" y2="1395"/>
<line class="st11" x1="314.2" y1="174.7" x2="285.8" y2="135.8"/>
<line class="st11" x1="301" y1="157" x2="301" y2="308"/>
<line class="st11" x1="261.4" y1="353.1" x2="301.2" y2="308.3"/>
<line class="st11" x1="301.2" y1="308.3" x2="358" y2="354.1"/>
<line class="st11" x1="330" y1="176" x2="330" y2="331"/>
<line class="st11" x1="369" y1="342.6" x2="329.7" y2="286.9"/>
<line class="st11" x1="291.8" y1="342.6" x2="329.7" y2="286.9"/>
<line class="st11" x1="132" y1="151" x2="132" y2="285"/>
<line class="st11" x1="111.9" y1="345.1" x2="132.3" y2="285.3"/>
<line class="st11" x1="145.2" y1="357.1" x2="165.7" y2="313.8"/>
<line class="st11" x1="285.3" y1="357.1" x2="264.8" y2="313.8"/>
<rect x="109.4" y="226" class="st12" width="77.3" height="87.7"/>
<ellipse transform="matrix(0.2063 -0.9785 0.9785 0.2063 -40.4451 251.8894)" class="st12" cx="135" cy="150.9" rx="10.2" ry="48.2"/>
<ellipse transform="matrix(0.9763 -0.2164 0.2164 0.9763 -22.6215 65.6138)" class="st12" cx="288.3" cy="136.1" rx="48.2" ry="11.4"/>
<circle class="st12" cx="216" cy="300.8" r="56.3"/>
<rect x="245.4" y="223.1" class="st12" width="76.8" height="36.9"/>
<path class="st12" d="M149.7,220.6c0,0,9-45.9,11.5-48.8c0,0,41.4-5.5,54.8,13c0,0,3,18.4-8,49.3C208,234,169.7,246,149.7,220.6z"/>
<path class="st12" d="M283.2,222.6c0,0-9-45.9-11.5-48.8c0,0-41.4-5.5-54.8,13c0,0-3,18.4,8,49.3C224.9,236,263.2,248,283.2,222.6z"
	/>
<path class="st12" d="M289.8,196.1c0,0,31.4-10,41.4-9s42.9,9,42.9,9H289.8z"/>
<path class="st12" d="M289.8,201.4c0,0,31.4,10,41.4,9s42.9-9,42.9-9H289.8z"/>
</svg>
