<?xml version="1.0" encoding="utf-8"?>
<!-- Generator: Adobe Illustrator 22.1.0, SVG Export Plug-In . SVG Version: 6.00 Build 0)  -->
<svg version="1.1" id="Слой_1" xmlns="http://www.w3.org/2000/svg" xmlns:xlink="http://www.w3.org/1999/xlink" x="0px" y="0px"
	 viewBox="0 0 1050 1485" style="enable-background:new 0 0 1050 1485;" xml:space="preserve">
<style type="text/css">
	.st0{fill:#FC6743;}
	.st1{fill:#F5B307;}
	.st2{fill:#008186;}
	.st3{fill:#FFFFFF;}
	.st4{font-family:'BernardMT-Condensed';}
	.st5{font-size:123.6412px;}
	.st6{font-family:'MonotypeCorsiva';}
	.st7{font-size:47.4524px;}
	.st8{fill:none;stroke:#FFFFFF;stroke-miterlimit:10;}
	.st9{font-family:'ArialMT';}
	.st10{font-size:38.5656px;}
	.st11{fill:#FFFFFF;stroke:#FFFFFF;stroke-miterlimit:10;}
	.st12{fill:none;stroke:#FFFFFF;stroke-width:7;stroke-linecap:round;stroke-linejoin:round;stroke-miterlimit:10;}
	.st13{fill:none;stroke:#FFFFFF;stroke-width:6;stroke-miterlimit:10;}
	.st14{font-size:57.7189px;}
</style>
<rect class="st0" width="1050" height="1485"/>
<rect x="42.5" y="39" transform="matrix(0.9932 -0.1161 0.1161 0.9932 -89.9872 70.3461)" class="st1" width="1032.7" height="1537.2"/>
<rect x="64" y="57.5" transform="matrix(0.9932 -0.1161 0.1161 0.9932 -89.7521 70.2853)" class="st2" width="988.9" height="1496.1"/>
<text transform="matrix(0.9903 -0.1391 0.1391 0.9903 48.8325 392.5952)" class="st3 st4 st5">CAGE THE ELEPHANT</text>
<text transform="matrix(0.9858 -0.168 0.168 0.9858 147.6088 807.1622)" class="st3 st6 st7">April 12</text>
<text transform="matrix(0.9858 -0.168 0.168 0.9858 147.6088 807.1622)" class="st8 st6 st7">April 12</text>
<text transform="matrix(0.9852 -0.1714 0.1714 0.9852 214.6499 1182.6294)" class="st3 st9 st10">Leif Ove Andsnes</text>
<text transform="matrix(0.9852 -0.1714 0.1714 0.9852 214.6499 1182.6294)" class="st8 st9 st10">Leif Ove Andsnes</text>
<text transform="matrix(0.9852 -0.1714 0.1714 0.9852 222.5857 1228.2441)" class="st3 st9 st10">Martha Argerich</text>
<text transform="matrix(0.9852 -0.1714 0.1714 0.9852 222.5857 1228.2441)" class="st8 st9 st10">Martha Argerich</text>
<text transform="matrix(0.9852 -0.1714 0.1714 0.9852 230.5216 1273.8589)" class="st3 st9 st10">Claudio Arrau</text>
<text transform="matrix(0.9852 -0.1714 0.1714 0.9852 230.5216 1273.8589)" class="st8 st9 st10">Claudio Arrau</text>
<text transform="matrix(0.9852 -0.1714 0.1714 0.9852 238.4402 1319.375)" class="st3 st9 st10">Vladimir Ashkenazy</text>
<text transform="matrix(0.9852 -0.1714 0.1714 0.9852 238.4402 1319.375)" class="st8 st9 st10">Vladimir Ashkenazy</text>
<path class="st11" d="M425.6,471.3l-0.8-9.7l6.1,0.1l0.9,9.1c0,0,11.5,2.1,12.9,6.1c0,0,2.4,3.9-14.1,3.2c-16.5-0.7-13.9-6-13.9-6
	S421.4,469.6,425.6,471.3z"/>
<line class="st12" x1="656.9" y1="474.9" x2="664.1" y2="621.4"/>
<line class="st12" x1="676.6" y1="483" x2="644.9" y2="485.7"/>
<line class="st12" x1="680.1" y1="610.2" x2="652.6" y2="612.6"/>
<ellipse transform="matrix(0.9965 -8.409356e-02 8.409356e-02 0.9965 -41.2392 61.5859)" class="st11" cx="710.4" cy="520.3" rx="16.2" ry="17.4"/>
<ellipse transform="matrix(0.9965 -8.409356e-02 8.409356e-02 0.9965 -44.8226 62.1243)" class="st11" cx="715" cy="563.1" rx="16.2" ry="17.4"/>
<ellipse transform="matrix(0.152 -0.9884 0.9884 0.152 -126.945 1277.3956)" class="st11" cx="681" cy="712.7" rx="23.6" ry="19.5"/>
<ellipse transform="matrix(0.9904 -0.138 0.138 0.9904 -96.6357 102.248)" class="st11" cx="689" cy="748" rx="19.5" ry="23.6"/>
<ellipse transform="matrix(0.9904 -0.138 0.138 0.9904 -90.7855 107.848)" class="st11" cx="732.4" cy="708.6" rx="17.9" ry="21.6"/>
<ellipse transform="matrix(0.9904 -0.138 0.138 0.9904 -111.7013 103.5556)" class="st11" cx="690.9" cy="857.3" rx="19.5" ry="20.9"/>
<line class="st13" x1="769.2" y1="842.9" x2="807.1" y2="1292.3"/>
<circle class="st11" cx="805.9" cy="1301.7" r="12.3"/>
<ellipse transform="matrix(0.9989 -4.622617e-02 4.622617e-02 0.9989 -47.6989 36.521)" class="st11" cx="765.8" cy="1049.6" rx="19.5" ry="20.9"/>
<ellipse transform="matrix(0.9989 -4.622617e-02 4.622617e-02 0.9989 -50.595 36.8839)" class="st11" cx="772.2" cy="1112.4" rx="20.7" ry="24.6"/>
<ellipse transform="matrix(0.9989 -4.622617e-02 4.622617e-02 0.9989 -53.9395 37.2479)" class="st11" cx="778.4" cy="1184.9" rx="20.8" ry="28.7"/>
<ellipse transform="matrix(0.9989 -4.622617e-02 4.622617e-02 0.9989 -57.8514 37.69)" class="st11" cx="786" cy="1269.7" rx="20.8" ry="41"/>
<path class="st3" d="M681.9,692.4L674,483.2c0,0-0.4-22.6-8-39.4S631.2,420,631.2,420s-24.2-6.2-35.4,7.1
	c-11.2,13.3-53.8,26.7-53.8,26.7c-63.6,14.6-119.8,7-119.8,7c-67-13.9-73.3-27.8-73.3-27.8l62-9.3c0,0,54.8,15.9,92.6,12.8
	s67.6-16,67.6-16s17.3-14.8,38-24.8c20.8-10,54.9,4.6,54.9,4.6s19.3,9.7,33.4,30.1c0,0,5.7,30.4,10.2,72.2l-0.4-3.1L731,688.3
	L742,819c1.9-0.8,6.4-2.3,11.9-1.1c3.4,0.7,5.9,2.2,7.2,3.1c1.6,1.1,2.9,2.3,3.9,3.5c1.3,1.5,1,2.4,1,2.4l10,101
	c0,0-19.1,11.9-29.1,2.5l1.6,18.4c0,0,9.5,2.3,15.4,24.4c0,0,2.1,12.2-4.8,28.2l2.4,27.9l11.2,128l15.6,153.3
	c0,0,1.9,47.2,22.2,43.4c20.3-3.8,20.1-18.2,20.1-18.2s-27.8-292.9-26.2-310.5c0,0-6.1-84.9,43-136.3c0,0,8.1-26.4-10-45.4
	s152.2,120.9,152.2,120.9s-67.5-7.7-81.6,81c0,0-15.3,50.7-6.1,122.9l15.3,181.8c0,0-1.4,81.4-97,93.6s-106.5-104.2-106.5-104.2
	l-7.4-87.8c0,0-13.2,2.1-19.7-13.8s9.3-23.4,9.3-23.4l-1.8-33.8c0,0-4.6-13.1-15.7-13.4c-4.8-0.1-11,2.2-18.6,9.1
	c0,0,10.1-26.6,39.1-12.6l2.9,3.4l-2-23.5c-10.8-6.3-17.6-13.9-17.6-13.9s-5.6-5.7-6.3-26.2s22-44,22-44l-14.6-295L681.9,692.4z"/>
<circle class="st11" cx="770.4" cy="838.2" r="10.8"/>
<text transform="matrix(0.9858 -0.168 0.168 0.9858 133.0806 745.0591)" class="st3 st6 st14">CALIFORNIA, CA</text>
</svg>
