<?xml version="1.0" encoding="utf-8"?>
<!-- Generator: Adobe Illustrator 22.1.0, SVG Export Plug-In . SVG Version: 6.00 Build 0)  -->
<svg version="1.1" id="Слой_1" xmlns="http://www.w3.org/2000/svg" xmlns:xlink="http://www.w3.org/1999/xlink" x="0px" y="0px"
	 viewBox="0 0 640 1080" style="enable-background:new 0 0 640 1080;" xml:space="preserve">
<style type="text/css">
	.st0{fill:#FFFFFF;stroke:#FFFFFF;stroke-miterlimit:10;}
	.st1{fill:#FFFFFF;stroke:#FFFFFF;stroke-width:7;stroke-linecap:round;stroke-linejoin:round;stroke-miterlimit:10;}
	.st2{fill:#FFFFFF;stroke:#FFFFFF;stroke-width:6;stroke-miterlimit:10;}
</style>
<g>
	<path class="st0" d="M100.5,80.5V71l5.9,0.6l0.1,8.9c0,0,11,3,12,7c0,0,2,4-14,2s-13-7-13-7S96.5,78.5,100.5,80.5z"/>
	<line class="st1" x1="325" y1="103" x2="320" y2="246"/>
	<line class="st1" x1="343.5" y1="112.5" x2="312.5" y2="112.5"/>
	<line class="st1" x1="336.5" y1="236.5" x2="309.5" y2="236.5"/>
	<ellipse class="st0" cx="373.3" cy="151.5" rx="15.8" ry="17"/>
	<ellipse class="st0" cx="374.3" cy="193.5" rx="15.8" ry="17"/>
	<ellipse transform="matrix(0.2346 -0.9721 0.9721 0.2346 -75.0694 577.0724)" class="st0" cx="328.9" cy="336.2" rx="23" ry="19"/>
	
		<ellipse transform="matrix(0.9985 -5.426629e-02 5.426629e-02 0.9985 -19.6511 18.666)" class="st0" cx="333.9" cy="371.2" rx="19" ry="23"/>
	
		<ellipse transform="matrix(0.9985 -5.426629e-02 5.426629e-02 0.9985 -17.6958 21.0784)" class="st0" cx="379.3" cy="336.4" rx="17.5" ry="21.1"/>
	
		<ellipse transform="matrix(0.9985 -5.426629e-02 5.426629e-02 0.9985 -25.4353 18.4375)" class="st0" cx="326.8" cy="477.6" rx="19" ry="20.4"/>
	<line class="st2" x1="404" y1="470" x2="404" y2="910"/>
	<circle class="st0" cx="402" cy="919" r="12"/>
	
		<ellipse transform="matrix(3.794546e-02 -0.9993 0.9993 3.794546e-02 -300.9695 1028.642)" class="st0" cx="383.7" cy="670.6" rx="20.4" ry="19"/>
	
		<ellipse transform="matrix(3.794546e-02 -0.9993 0.9993 3.794546e-02 -361.4782 1089.0089)" class="st0" cx="384.8" cy="732.2" rx="24" ry="20.2"/>
	
		<ellipse transform="matrix(3.794546e-02 -0.9993 0.9993 3.794546e-02 -432.4258 1157.3188)" class="st0" cx="384.8" cy="803.2" rx="28" ry="20.3"/>
	
		<ellipse transform="matrix(3.794546e-02 -0.9993 0.9993 3.794546e-02 -514.8835 1237.6738)" class="st0" cx="385.3" cy="886.2" rx="40" ry="20.3"/>
	<path class="st0" d="M331.5,316.5l9.5-204c0,0,1.5-22-4.5-39s-32-26-32-26s-23-8-35,4S215,73,215,73c-63,9-117-3-117-3
		C34,51,29,37,29,37l61-4c0,0,52,20,89,20s67-10,67-10s18-13,39-21s53,9,53,9s18,11,30,32c0,0,3,30,4,71l-0.1-3l7.6,185.5v128
		c1.9-0.6,6.4-1.7,11.6-0.1c3.3,1,5.5,2.6,6.7,3.6c1.5,1.2,2.6,2.5,3.5,3.7c1.1,1.5,0.7,2.4,0.7,2.4l1.4,99c0,0-19.5,10-28.5,0v18
		c0,0,9,3,13,25c0,0,1,12-7,27v27.3l0.4,125.4L384,926c0,0-2,46,18,44s21-16,21-16s-3-287,0-304c0,0,1-83,53-129c0,0,10-25-6-45
		s138,130,138,130s-65-13-86,72c0,0-19,48-16,119v178c0,0-8,79-102,83s-95-110-95-110v-86c0,0-13,1-18-15s11-22,11-22l1-33
		c0,0-3.4-13.1-14.2-14.3c-4.7-0.5-10.9,1.2-18.8,7.3c0,0,12-25,39-9l2.5,3.5v-23c-10-7-16-15-16-15s-5-6-4-26s25-41,25-41l10-288
		L331.5,316.5z"/>
	<circle class="st0" cx="405.5" cy="465.5" r="10.5"/>
</g>
</svg>
